<?xml version="1.0" encoding="UTF-8"?>
<svg version="1.1" xmlns="http://www.w3.org/2000/svg" width="1000" height="1000">
<path d="M0 0 C0.89556764 -0.00500704 1.79113527 -0.01001407 2.71384132 -0.01517284 C3.70591846 -0.01049051 4.6979956 -0.00580817 5.72013569 -0.00098395 C7.29795108 -0.00534428 7.29795108 -0.00534428 8.90764153 -0.00979269 C12.47388358 -0.0171598 16.03995718 -0.01011825 19.60619831 -0.00326896 C22.17212577 -0.00557074 24.73805256 -0.00874535 27.30397797 -0.01272345 C32.90420516 -0.01996812 38.50439384 -0.01971468 44.10462284 -0.01462913 C52.43213155 -0.00708735 60.75960757 -0.01091952 69.08711603 -0.01704574 C83.95703585 -0.02759709 98.82693852 -0.02665655 113.69685999 -0.02088792 C126.70947778 -0.01586435 139.72208927 -0.01453987 152.73470783 -0.0169332 C153.5965878 -0.01708597 154.45846777 -0.01723874 155.34646531 -0.01739614 C158.84478143 -0.01801878 162.34309755 -0.01865558 165.84141366 -0.01931567 C198.68386436 -0.02543892 231.52630411 -0.01987843 264.36875312 -0.00912188 C293.57168668 0.00036991 322.7746028 -0.00047932 351.9775362 -0.01004386 C384.75845609 -0.02074428 417.53936631 -0.02500473 450.3202877 -0.01881933 C453.81237062 -0.01817786 457.30445353 -0.01755218 460.79653645 -0.0169332 C462.08637407 -0.01669597 462.08637407 -0.01669597 463.40226903 -0.01645395 C476.40932484 -0.01417534 489.41637368 -0.01684635 502.42342854 -0.02189231 C517.20737846 -0.02759887 531.99130849 -0.02620679 546.77525592 -0.01533082 C555.05767468 -0.0094394 563.34005042 -0.00910192 571.62246811 -0.01662317 C577.79140703 -0.02160916 583.96029467 -0.01623806 590.12922728 -0.00667402 C592.63658823 -0.00442478 595.14395489 -0.00560998 597.65131223 -0.0104256 C601.0379956 -0.01643517 604.42443819 -0.01034308 607.81110859 -0.00098395 C608.80318573 -0.00566629 609.79526287 -0.01034862 610.81740296 -0.01517284 C612.16075441 -0.00766228 612.16075441 -0.00766228 613.53124428 0 C614.6943445 0.00020328 614.6943445 0.00020328 615.88094169 0.00041066 C617.76562214 0.25069833 617.76562214 0.25069833 619.76562214 2.25069833 C620.0117178 4.60513902 620.0117178 4.60513902 620.00613117 7.61632943 C620.01025517 9.32431962 620.01025517 9.32431962 620.01446247 11.06681466 C620.00727192 12.32197381 620.00008137 13.57713296 619.99267292 14.87032723 C619.99296497 16.18735131 619.99325703 17.50437539 619.99355793 18.86130929 C619.99413316 22.47889829 619.98235138 26.09635541 619.96841002 29.71391368 C619.955931 33.4922309 619.9547344 37.27055094 619.9523592 41.04888558 C619.94613609 48.20641522 619.92971407 55.36388396 619.90966022 62.52138674 C619.88732703 70.66879071 619.87631429 78.81619754 619.86626935 86.96362448 C619.84534853 103.72601811 619.81015647 120.48835046 619.76562214 137.25069833 C618.44562214 137.91069833 617.12562214 138.57069833 615.76562214 139.25069833 C615.67753469 147.98393994 616.31760252 153.75324242 621.79296589 160.64522958 C640.92262511 185.91153195 637.57550018 220.91921191 634.20312214 250.37569833 C629.53858386 289.31997617 629.53858386 289.31997617 642.73827839 324.84054208 C643.42792683 325.61526864 644.11757526 326.3899952 644.82812214 327.18819833 C669.09150479 356.16946094 687.82991068 396.71747863 684.76562214 435.25069833 C683.27989681 446.03247415 679.87931439 456.61853084 671.76562214 464.25069833 C675.7681667 464.34250967 675.7681667 464.34250967 679.76562214 464.25069833 C680.09562214 463.92069833 680.42562214 463.59069833 680.76562214 463.25069833 C682.38689637 463.15208235 684.01244582 463.12271066 685.63671589 463.1213038 C686.67449177 463.11815164 687.71226765 463.11499948 688.78149128 463.11175179 C690.47519855 463.11478814 690.47519855 463.11478814 692.20312214 463.11788583 C693.35352985 463.1169291 694.50393757 463.11597238 695.68920612 463.11498666 C698.12711358 463.11430464 700.56502284 463.11616042 703.00292683 463.12032723 C706.74938732 463.12567515 710.49572791 463.12038294 714.24218464 463.11397958 C716.60416407 463.11464036 718.96614343 463.11592151 721.32812214 463.11788583 C722.45726032 463.1158616 723.58639851 463.11383737 724.749753 463.11175179 C725.78752888 463.11490396 726.82530476 463.11805612 727.89452839 463.1213038 C728.81306599 463.12209939 729.73160358 463.12289498 730.67797565 463.12371469 C732.76562214 463.25069833 732.76562214 463.25069833 733.76562214 464.25069833 C733.86076806 466.95907919 733.89117146 469.64188346 733.87914753 472.35055184 C733.87929356 473.19925851 733.87943958 474.04796517 733.87959003 474.92239022 C733.87889062 477.74148724 733.87109691 480.56051904 733.86327839 483.37960458 C733.86141431 485.32873649 733.85999036 487.27786888 733.85899067 489.22700143 C733.85516469 494.36776665 733.84533373 499.5085038 733.83428669 504.6492579 C733.82407428 509.8907498 733.81949342 515.13224623 733.81445026 520.3737452 C733.80371153 530.66607527 733.78663415 540.95838447 733.76562214 551.25069833 C729.14062214 553.37569833 729.14062214 553.37569833 725.76562214 552.25069833 C723.60024502 553.47774536 721.65972702 554.74801488 719.64062214 556.18819833 C718.28957949 557.12053152 716.9365654 558.05001171 715.58202839 558.97726083 C714.82422077 559.49707528 714.06641315 560.01688973 713.28564167 560.55245614 C708.44343394 563.8156219 703.50425231 566.92883131 698.57812214 570.06319833 C689.61459327 575.77879648 680.67880144 581.53379308 671.78246784 587.35348153 C671.01507282 587.85452401 670.2476778 588.35556649 669.45702839 588.87179208 C668.45458088 589.52812631 668.45458088 589.52812631 667.4318819 590.19771981 C665.76562214 591.25069833 665.76562214 591.25069833 663.76562214 592.25069833 C662.72471554 593.89212796 661.72057887 595.55782048 660.76562214 597.25069833 C655.89062214 596.37569833 655.89062214 596.37569833 654.76562214 595.25069833 C652.4358081 595.01426731 650.13444291 594.84685922 647.79751301 594.72398019 C647.04575845 594.68254893 646.2940039 594.64111768 645.5194689 594.59843093 C634.43995255 594.03172085 623.34609501 593.88216534 612.25536823 593.67818856 C609.71830944 593.62905676 607.18125615 593.57964073 604.64420795 593.52996469 C598.49930894 593.41047059 592.35435743 593.29413694 586.20936702 593.17945033 C581.1910853 593.08573994 576.1728291 592.99075802 571.15458775 592.89491105 C570.43499032 592.88116973 569.7153929 592.86742842 568.97398949 592.8532707 C567.51087991 592.82532881 566.04777036 592.79738534 564.58466084 592.7694403 C550.89305597 592.50810495 537.20137286 592.25107201 523.50966068 591.9954297 C511.10404704 591.76367717 498.69853629 591.52686905 486.29306678 591.28753578 C473.45881509 591.03997271 460.62450242 590.79582316 447.79011881 590.55519277 C440.6241218 590.42078716 433.45815285 590.28519358 426.29224491 590.14611268 C400.41209355 589.64486676 374.53089376 589.15755399 348.64541078 589.07089269 C346.58036893 589.06339381 344.51533571 589.05281206 342.45032668 589.03896439 C339.65474937 589.0217998 336.85949288 589.01776138 334.06387043 589.01816964 C332.83275103 589.00774146 332.83275103 589.00774146 331.57676053 588.99710262 C327.20357804 588.84218003 327.20357804 588.84218003 323.76562214 591.25069833 C321.26562214 591.50069833 321.26562214 591.50069833 318.76562214 591.25069833 C316.18172935 588.66680554 316.51684584 586.90887178 316.48345661 583.38712716 C316.48593403 582.56681512 316.48841145 581.74650308 316.49096394 580.90133309 C316.485853 580.03779214 316.48074207 579.17425118 316.47547626 578.28454232 C316.46153755 575.42032657 316.46254025 572.55635029 316.46484089 569.69210458 C316.46095626 567.70674701 316.45662208 565.72139028 316.45185566 563.73603463 C316.4443842 559.57056638 316.44469138 555.40518286 316.44994831 551.239712 C316.45574365 545.8949885 316.43881482 540.55061145 316.41560364 535.20594525 C316.4008897 531.10449332 316.39999141 527.00312527 316.40311337 522.90165162 C316.40259896 520.9308258 316.39733892 518.95999543 316.38730145 516.98919511 C316.37499984 514.23571882 316.38169084 511.48292305 316.39330769 508.72945809 C316.38566395 507.91117028 316.37802021 507.09288247 316.37014484 506.24979806 C316.42238985 500.66284494 316.42238985 500.66284494 318.14377785 498.59583592 C320.24506528 496.85305411 322.39189373 495.86641981 324.88280964 494.74679208 C326.47959553 494.01951913 326.47959553 494.01951913 328.10863972 493.2775538 C329.85697102 492.49082284 329.85697102 492.49082284 331.64062214 491.68819833 C334.16535357 490.53888124 336.68673282 489.38236336 339.20702839 488.22335458 C339.87882633 487.91462411 340.55062428 487.60589364 341.24277973 487.2878077 C351.71576305 482.4525671 362.05455782 477.33362266 372.41161823 472.25631356 C373.1804282 471.88011376 373.94923817 471.50391397 374.74134541 471.11631417 C376.17723783 470.41347502 377.61238897 469.70911833 379.04661274 469.00288033 C380.94698637 468.07247667 382.85524023 467.16033105 384.76562214 466.25069833 C385.85447712 465.71912118 386.9433321 465.18754403 388.06518269 464.63985848 C392.8763548 462.83372473 397.70005221 462.02931215 402.76562214 461.25069833 C402.6278133 460.5727572 402.49000446 459.89481606 402.3480196 459.19633126 C400.91483156 452.14099709 399.48841102 445.08431889 398.06591511 438.02682137 C397.53466467 435.39289063 397.00102044 432.75946181 396.46532917 430.12643075 C395.69630189 426.34193194 394.93348526 422.55622648 394.17187214 418.77022958 C393.93126057 417.59297814 393.69064899 416.41572671 393.44274616 415.20280099 C393.22251789 414.10203729 393.00228962 413.00127358 392.77538776 411.86715341 C392.57997395 410.90118737 392.38456013 409.93522134 392.18322468 408.93998361 C391.77751661 406.3272966 391.6881247 403.88956495 391.76562214 401.25069833 C389.12562214 401.25069833 386.48562214 401.25069833 383.76562214 401.25069833 C383.76562214 402.24069833 383.76562214 403.23069833 383.76562214 404.25069833 C380.96166764 405.65267558 378.65358156 405.37743865 375.51521873 405.37933278 C374.53806958 405.38196234 374.53806958 405.38196234 373.54118004 405.38464502 C371.3371698 405.38933274 369.13322472 405.38683244 366.92921162 405.3844111 C365.34157489 405.38627768 363.75393863 405.38857776 362.1663031 405.39127642 C357.7870025 405.39741975 353.40772092 405.39725786 349.02841699 405.39608204 C344.3119196 405.39587867 339.59542843 405.40139065 334.87893391 405.40613961 C325.63248121 405.41446047 316.38603489 405.41719509 307.13957877 405.41775199 C299.62725511 405.41822645 292.11493357 405.42027768 284.60261059 405.42345262 C263.32467437 405.43226292 242.04674321 405.43687138 220.76880515 405.43612214 C219.62073083 405.43608219 218.47265651 405.43604223 217.28979206 405.43600106 C216.14032331 405.43596018 214.99085456 405.4359193 213.80655342 405.43587718 C195.16893608 405.43547055 176.53133893 405.44504343 157.89372743 405.45913943 C138.77722841 405.47348407 119.66073924 405.48041068 100.54423469 405.47954565 C89.80351849 405.47921303 79.06282345 405.48198854 68.32211208 405.4927237 C59.17864207 405.50180357 50.03520281 405.50402473 40.89173026 405.49721428 C36.22308386 405.49393637 31.55449655 405.49393789 26.88585567 405.50256753 C22.61681645 405.51037766 18.34788373 405.50905788 14.07884728 405.5002834 C12.5297383 405.49873621 10.98062159 405.50060986 9.43152172 405.50614347 C7.33483882 405.51314044 5.23853609 405.5079603 3.14186668 405.4995873 C1.39089372 405.49991335 1.39089372 405.49991335 -0.39545244 405.50024599 C-3.23437786 405.25069833 -3.23437786 405.25069833 -6.23437786 403.25069833 C-6.60927469 400.43337893 -6.60927469 400.43337893 -6.60910797 396.74762368 C-6.61519906 395.72950417 -6.61519906 395.72950417 -6.6214132 394.69081658 C-6.63143791 392.39371917 -6.61988775 390.09722147 -6.60859966 387.8001368 C-6.61133755 386.14578853 -6.61538729 384.49144198 -6.62064332 382.83709979 C-6.63127885 378.27338102 -6.62306985 373.70985672 -6.61189282 369.1461463 C-6.6030831 364.23129631 -6.61148494 359.31647267 -6.61775494 354.40162301 C-6.6272639 344.76645408 -6.62062479 335.1313598 -6.60849199 325.49619639 C-6.59490021 314.28661208 -6.59650735 303.07704575 -6.59862532 291.8674553 C-6.60181827 271.87295453 -6.59012997 251.87848933 -6.5705595 231.88399911 C-6.55155404 212.46178756 -6.54447158 193.03961772 -6.55005169 173.61739755 C-6.55610328 152.49150829 -6.5559438 131.3656374 -6.54456586 110.23974967 C-6.54335851 107.98901995 -6.54215252 105.73829023 -6.54094791 103.48756051 C-6.54034438 102.38002369 -6.53974084 101.27248688 -6.53911901 100.13138834 C-6.53523224 92.30912111 -6.53563641 84.48686071 -6.53753376 76.66459298 C-6.53965128 67.13790914 -6.53446535 57.61126191 -6.51992021 48.08458841 C-6.51265394 43.2196203 -6.50861811 38.35470564 -6.51316357 33.48973298 C-6.5172178 29.04248259 -6.51213825 24.59534291 -6.49953749 20.14810938 C-6.49659155 18.53307282 -6.49706849 16.91802593 -6.50118057 15.30299193 C-6.50623762 13.11978414 -6.49916706 10.93695401 -6.48885345 8.75377297 C-6.48798668 7.53747374 -6.4871199 6.32117451 -6.48622686 5.06801772 C-6.07306462 0.44616098 -4.18937317 0.00073218 0 0 Z " fill="#FEFEFE" transform="translate(140.23437786102295,205.7493016719818)"/>
<path d="M0 0 C1.78760742 -0.0009668 1.78760742 -0.0009668 3.61132812 -0.00195312 C5.47241211 0.02801758 5.47241211 0.02801758 7.37109375 0.05859375 C9.23797852 0.04795898 9.23797852 0.04795898 11.14257812 0.03710938 C20.2782247 0.10141008 20.2782247 0.10141008 22.45953369 1.72467041 C24.21675472 4.03204163 24.17186675 5.36042297 24.14916992 8.24291992 C24.14894333 9.20368942 24.14871674 10.16445892 24.14848328 11.15434265 C24.13299942 12.1888002 24.11751556 13.22325775 24.1015625 14.2890625 C24.09731766 15.35022781 24.09307281 16.41139313 24.08869934 17.50471497 C24.07189081 20.8979314 24.03423394 24.29055647 23.99609375 27.68359375 C23.98104975 29.98241331 23.96736086 32.28124216 23.95507812 34.58007812 C23.9219802 40.21895217 23.87175905 45.85748072 23.80859375 51.49609375 C22.48859375 52.15609375 21.16859375 52.81609375 19.80859375 53.49609375 C20.13859375 54.81609375 20.46859375 56.13609375 20.80859375 57.49609375 C21.79859375 57.18671875 22.78859375 56.87734375 23.80859375 56.55859375 C44.2623547 50.80214606 65.86283029 56.21070534 83.99609375 66.24609375 C89.4549046 69.38286753 94.11127149 73.0662404 98.64453125 77.4296875 C100.48541725 79.18750102 102.33787406 80.66564206 104.37109375 82.18359375 C119.24257933 94.95062382 124.97117313 117.67815205 126.46630859 136.24951172 C127.49106025 152.36429722 125.94438129 168.6512451 123.94897461 184.64257812 C121.20664101 207.0252678 118.29179586 237.0631492 132.78125 256.0859375 C133.47089844 256.86066406 134.16054688 257.63539063 134.87109375 258.43359375 C159.1344764 287.41485636 177.87288229 327.96287405 174.80859375 366.49609375 C173.32286842 377.27786957 169.922286 387.86392626 161.80859375 395.49609375 C165.81113831 395.58790509 165.81113831 395.58790509 169.80859375 395.49609375 C170.13859375 395.16609375 170.46859375 394.83609375 170.80859375 394.49609375 C172.42986798 394.39747777 174.05541743 394.36810608 175.6796875 394.36669922 C176.71746338 394.36354706 177.75523926 394.3603949 178.82446289 394.35714722 C180.51817017 394.36018356 180.51817017 394.36018356 182.24609375 394.36328125 C183.39650146 394.36232452 184.54690918 394.3613678 185.73217773 394.36038208 C188.17008519 394.35970006 190.60799445 394.36155585 193.04589844 394.36572266 C196.79235893 394.37107058 200.53869952 394.36577836 204.28515625 394.359375 C206.64713568 394.36003578 209.00911504 394.36131693 211.37109375 394.36328125 C212.50023193 394.36125702 213.62937012 394.35923279 214.79272461 394.35714722 C215.83050049 394.36029938 216.86827637 394.36345154 217.9375 394.36669922 C218.8560376 394.36749481 219.7745752 394.36829041 220.72094727 394.36911011 C222.80859375 394.49609375 222.80859375 394.49609375 223.80859375 395.49609375 C223.90373967 398.20447461 223.93414307 400.88727888 223.92211914 403.59594727 C223.92226517 404.44465393 223.92241119 405.2933606 223.92256165 406.16778564 C223.92186223 408.98688266 223.91406853 411.80591446 223.90625 414.625 C223.90438592 416.57413192 223.90296197 418.5232643 223.90196228 420.47239685 C223.8981363 425.61316207 223.88830534 430.75389922 223.8772583 435.89465332 C223.8670459 441.13614523 223.86246503 446.37764165 223.85742188 451.61914062 C223.84668314 461.91147069 223.82960576 472.20377989 223.80859375 482.49609375 C219.18359375 484.62109375 219.18359375 484.62109375 215.80859375 483.49609375 C213.64321663 484.72314078 211.70269863 485.9934103 209.68359375 487.43359375 C208.3325511 488.36592694 206.97953701 489.29540714 205.625 490.22265625 C204.86719238 490.7424707 204.10938477 491.26228516 203.32861328 491.79785156 C198.48640555 495.06101732 193.54722392 498.17422673 188.62109375 501.30859375 C179.65756488 507.0241919 170.72177305 512.7791885 161.82543945 518.59887695 C161.05804443 519.09991943 160.29064941 519.60096191 159.5 520.1171875 C158.83170166 520.55474365 158.16340332 520.9922998 157.47485352 521.44311523 C155.80859375 522.49609375 155.80859375 522.49609375 153.80859375 523.49609375 C152.76768715 525.13752338 151.76355049 526.8032159 150.80859375 528.49609375 C145.93359375 527.62109375 145.93359375 527.62109375 144.80859375 526.49609375 C142.47877971 526.25966273 140.17741452 526.09225464 137.84048462 525.96937561 C137.08873006 525.92794436 136.33697551 525.8865131 135.56244051 525.84382635 C124.48292416 525.27711628 113.38906662 525.12756076 102.29833984 524.92358398 C99.76128105 524.87445218 97.22422776 524.82503615 94.68717957 524.77536011 C88.54228055 524.65586601 82.39732904 524.53953236 76.25233863 524.42484575 C71.23405691 524.33113536 66.21580071 524.23615344 61.19755936 524.14030647 C60.47796193 524.12656516 59.75836451 524.11282384 59.01696111 524.09866612 C57.55385152 524.07072424 56.09074197 524.04278076 54.62763245 524.01483572 C40.93602758 523.75350037 27.24434447 523.49646743 13.55263229 523.24082512 C1.14701866 523.00907259 -11.2584921 522.77226447 -23.6639616 522.5329312 C-36.4982133 522.28536814 -49.33252597 522.04121858 -62.16690958 521.80058819 C-69.33290659 521.66618258 -76.49887554 521.530589 -83.66478348 521.3915081 C-109.54493484 520.89026218 -135.42613463 520.40294941 -161.31161761 520.31628811 C-163.37665945 520.30878924 -165.44169268 520.29820748 -167.50670171 520.28435981 C-170.30227902 520.26719522 -173.09753551 520.2631568 -175.89315796 520.26356506 C-177.12427736 520.25313689 -177.12427736 520.25313689 -178.38026786 520.24249804 C-182.75345035 520.08757545 -182.75345035 520.08757545 -186.19140625 522.49609375 C-188.69140625 522.74609375 -188.69140625 522.74609375 -191.19140625 522.49609375 C-193.77529904 519.91220096 -193.44018255 518.15426721 -193.47357178 514.63252258 C-193.46985565 513.40205452 -193.46985565 513.40205452 -193.46606445 512.14672852 C-193.47117538 511.28318756 -193.47628632 510.41964661 -193.48155212 509.52993774 C-193.49549084 506.66572199 -193.49448813 503.80174571 -193.4921875 500.9375 C-193.49607213 498.95214243 -193.50040631 496.9667857 -193.50517273 494.98143005 C-193.51264419 490.8159618 -193.51233701 486.65057828 -193.50708008 482.48510742 C-193.50128474 477.14038392 -193.51821357 471.79600687 -193.54142475 466.45134068 C-193.55613869 462.34988874 -193.55703698 458.24852069 -193.55391502 454.14704704 C-193.55442943 452.17622122 -193.55968947 450.20539085 -193.56972694 448.23459053 C-193.58202855 445.48111424 -193.57533755 442.72831847 -193.5637207 439.97485352 C-193.57136444 439.1565657 -193.57900818 438.33827789 -193.58688354 437.49519348 C-193.53463853 431.90824036 -193.53463853 431.90824036 -191.81325054 429.84123135 C-189.71196311 428.09844954 -187.56513466 427.11181523 -185.07421875 425.9921875 C-183.47743286 425.26491455 -183.47743286 425.26491455 -181.84838867 424.52294922 C-180.68283447 423.99846191 -179.51728027 423.47397461 -178.31640625 422.93359375 C-175.79167482 421.78427666 -173.27029557 420.62775878 -170.75 419.46875 C-170.07820206 419.16001953 -169.40640411 418.85128906 -168.71424866 418.53320312 C-158.24126534 413.69796252 -147.90247057 408.57901808 -137.54541016 403.50170898 C-136.77660019 403.12550919 -136.00779022 402.74930939 -135.21568298 402.36170959 C-133.77979056 401.65887044 -132.34463942 400.95451376 -130.91041565 400.24827576 C-129.01004202 399.31787209 -127.10178816 398.40572647 -125.19140625 397.49609375 C-124.10255127 396.9645166 -123.01369629 396.43293945 -121.8918457 395.88525391 C-117.08067358 394.07912015 -112.25697618 393.27470757 -107.19140625 392.49609375 C-107.38479584 391.53913857 -107.38479584 391.53913857 -107.58209229 390.56285095 C-108.94889227 383.79630513 -110.31129748 377.02888413 -111.67138672 370.26098633 C-112.17649228 367.75035227 -112.68264147 365.23992791 -113.18994141 362.72973633 C-115.76033531 350.00755898 -118.29469441 337.28224397 -120.55078125 324.5 C-120.71942688 323.55656235 -120.88807251 322.61312469 -121.06182861 321.64109802 C-121.21254822 320.76897171 -121.36326782 319.8968454 -121.51855469 318.99829102 C-121.71502594 317.86847557 -121.71502594 317.86847557 -121.91546631 316.71583557 C-122.22138778 314.25491353 -122.36791963 311.97242427 -122.19140625 309.49609375 C-119.73644199 307.04112949 -119.0272186 307.23142764 -115.64990234 307.17724609 C-114.70907806 307.1573764 -113.76825378 307.13750671 -112.79891968 307.11703491 C-111.78117462 307.1054837 -110.76342957 307.0939325 -109.71484375 307.08203125 C-108.15426743 307.05298203 -108.15426743 307.05298203 -106.56216431 307.02334595 C-103.23032905 306.96343648 -99.89845946 306.91711923 -96.56640625 306.87109375 C-94.31118262 306.83292445 -92.05597373 306.79387335 -89.80078125 306.75390625 C-84.2644535 306.65772576 -78.7280374 306.57271179 -73.19140625 306.49609375 C-72.8039624 305.29388184 -72.41651855 304.09166992 -72.01733398 302.85302734 C-71.49100543 301.24176958 -70.96437807 299.63060941 -70.4375 298.01953125 C-70.18432007 297.23118896 -69.93114014 296.44284668 -69.67028809 295.63061523 C-65.27658359 282.26085715 -58.23067732 269.44460508 -50.375 257.8046875 C-40.06348608 242.50444978 -38.36633118 226.43537554 -37.64453125 208.4921875 C-37.60021973 207.43157104 -37.5559082 206.37095459 -37.51025391 205.27819824 C-37.4021416 202.68423337 -37.29590279 200.09020637 -37.19140625 197.49609375 C-38.24000226 197.49885913 -38.24000226 197.49885913 -39.30978203 197.50168037 C-56.30130337 197.54580437 -73.29281021 197.57892346 -90.28437614 197.59971809 C-98.50129119 197.61004091 -106.71816805 197.62412037 -114.93505859 197.64697266 C-122.0949551 197.66687585 -129.25482396 197.67980287 -136.41474736 197.68427074 C-140.20763325 197.68688335 -144.00044003 197.69304481 -147.79330063 197.70755386 C-151.3604282 197.72108935 -154.92744377 197.72532463 -158.49459457 197.72230911 C-160.43368708 197.72312505 -162.37276728 197.73390774 -164.31182861 197.74493408 C-165.45890289 197.74218475 -166.60597717 197.73943542 -167.78781128 197.73660278 C-168.78887846 197.73844637 -169.78994564 197.74028996 -170.82134819 197.74218941 C-173.19140625 197.49609375 -173.19140625 197.49609375 -175.19140625 195.49609375 C-174.63585069 190.94053819 -174.63585069 190.94053819 -173.19140625 189.49609375 C-171.70268765 189.40939943 -170.20996125 189.38905881 -168.71875 189.3984375 C-167.81962891 189.40166016 -166.92050781 189.40488281 -165.99414062 189.40820312 C-165.04861328 189.41658203 -164.10308594 189.42496094 -163.12890625 189.43359375 C-162.17951172 189.43810547 -161.23011719 189.44261719 -160.25195312 189.44726562 C-157.8983756 189.45909265 -155.54492148 189.4755735 -153.19140625 189.49609375 C-153.19806808 188.37744934 -153.20472992 187.25880493 -153.21159363 186.10626221 C-153.27237444 175.57077942 -153.31736435 165.03533215 -153.34684277 154.4997139 C-153.36250732 149.08306834 -153.38376016 143.66656418 -153.41772461 138.25 C-153.45028966 133.02398028 -153.46825331 127.79809668 -153.47603798 122.57198334 C-153.4815866 120.57684943 -153.49242155 118.58172309 -153.50859642 116.58664703 C-153.53033265 113.79490483 -153.53337476 111.00372709 -153.53198242 108.21191406 C-153.54276825 107.3847287 -153.55355408 106.55754333 -153.56466675 105.70529175 C-153.54672735 102.3872257 -153.42802881 99.93914611 -151.84907532 96.98271179 C-149.31409901 94.70931381 -147.22944451 94.99454541 -143.87890625 95 C-142.63882813 94.99935547 -141.39875 94.99871094 -140.12109375 94.99804688 C-138.82429688 95.01802734 -137.5275 95.03800781 -136.19140625 95.05859375 C-134.89460937 95.05150391 -133.5978125 95.04441406 -132.26171875 95.03710938 C-122.6990589 95.10172194 -122.6990589 95.10172194 -120.53499889 96.78287983 C-118.18628815 99.77771905 -118.80396262 103.53957787 -118.85083008 107.19018555 C-118.85017296 108.52220505 -118.85017296 108.52220505 -118.84950256 109.88113403 C-118.85159435 112.81941636 -118.87494385 115.75712972 -118.8984375 118.6953125 C-118.90403206 120.73126412 -118.90830282 122.76721978 -118.91130066 124.80317688 C-118.92276039 130.16430798 -118.95223738 135.52519562 -118.9854126 140.88623047 C-119.01608911 146.35576077 -119.02980083 151.82533036 -119.04492188 157.29492188 C-119.07710592 168.02875285 -119.12831598 178.76240307 -119.19140625 189.49609375 C-114.57140625 189.49609375 -109.95140625 189.49609375 -105.19140625 189.49609375 C-105.2002887 187.94927414 -105.20917114 186.40245453 -105.21832275 184.8087616 C-105.29929084 170.25545384 -105.35955511 155.70222854 -105.39865494 141.14875317 C-105.41929196 133.66605276 -105.44743403 126.18352033 -105.49316406 118.70092773 C-105.5329973 112.18009926 -105.55883078 105.65939243 -105.56776023 99.13844568 C-105.57298105 95.68467009 -105.5852747 92.23124253 -105.61432648 88.77757835 C-105.64647342 84.92481269 -105.64736792 81.07238942 -105.64550781 77.21948242 C-105.65988892 76.07077667 -105.67427002 74.92207092 -105.68908691 73.73855591 C-105.68358826 72.69107681 -105.6780896 71.64359772 -105.67242432 70.56437683 C-105.67611149 69.65272357 -105.67979866 68.74107031 -105.68359756 67.80179119 C-105.19140625 65.49609375 -105.19140625 65.49609375 -103.33492661 63.70457935 C-98.82778985 61.1635212 -93.23166959 62.0285271 -88.19140625 62.05859375 C-87.00289062 62.03861328 -85.814375 62.01863281 -84.58984375 61.99804688 C-82.87667969 61.99901367 -82.87667969 61.99901367 -81.12890625 62 C-80.08605469 61.99814697 -79.04320312 61.99629395 -77.96875 61.99438477 C-74.43610452 62.63253407 -73.43042867 63.73355236 -71.19140625 66.49609375 C-70.69921494 68.90922165 -70.69921494 68.90922165 -70.71038818 71.64666748 C-70.70488953 72.68710709 -70.69939087 73.72754669 -70.69372559 74.79951477 C-70.70810669 75.93527451 -70.72248779 77.07103424 -70.73730469 78.24121094 C-70.73672058 79.44148422 -70.73613647 80.64175751 -70.73553467 81.87840271 C-70.73784307 85.16552378 -70.75789535 88.45196271 -70.7858305 91.73894787 C-70.81084485 95.17556478 -70.81318616 98.61219526 -70.81793213 102.04888916 C-70.83036188 108.5547983 -70.86318322 115.06043841 -70.90333009 121.5662291 C-70.94804802 128.97363986 -70.97003485 136.3810635 -70.99011183 143.78857565 C-71.03191608 159.02457505 -71.10307404 174.26028913 -71.19140625 189.49609375 C-66.57140625 189.49609375 -61.95140625 189.49609375 -57.19140625 189.49609375 C-57.19584747 187.44593048 -57.2002887 185.39576721 -57.2048645 183.28347778 C-57.24567487 164.00595574 -57.27547035 144.72843937 -57.29503059 125.45088387 C-57.30535456 115.53901594 -57.31943623 105.62717965 -57.34228516 95.71533203 C-57.36218481 87.07877961 -57.37511453 78.4422501 -57.37958324 69.80567539 C-57.38219644 65.23031649 -57.38836173 60.65502315 -57.40286636 56.07968521 C-57.41639624 51.77714756 -57.42063826 47.47470275 -57.41762161 43.17214584 C-57.41817384 41.58944953 -57.42217857 40.00675025 -57.4298172 38.42407227 C-57.43970677 36.27015811 -57.43739736 34.11659866 -57.43191528 31.962677 C-57.43375887 30.75512819 -57.43560246 29.54757938 -57.43750191 28.30343819 C-57.19140625 25.49609375 -57.19140625 25.49609375 -55.19140625 23.49609375 C-51.07373107 23.09808837 -46.95051963 23.16704658 -42.81518555 23.18041992 C-40.76492011 23.18357679 -38.7161022 23.16013615 -36.66601562 23.13476562 C-34.73145508 23.13379883 -34.73145508 23.13379883 -32.7578125 23.1328125 C-31.57131104 23.12983154 -30.38480957 23.12685059 -29.16235352 23.1237793 C-26.19140625 23.49609375 -26.19140625 23.49609375 -24.5289917 24.71893311 C-22.78213075 27.03987083 -22.81697193 28.41400382 -22.8190918 31.30297852 C-22.81286301 32.27731339 -22.80663422 33.25164825 -22.80021667 34.25550842 C-22.8140313 35.83059425 -22.8140313 35.83059425 -22.828125 37.4375 C-22.82737724 39.05542702 -22.82737724 39.05542702 -22.82661438 40.70603943 C-22.82895555 42.98658083 -22.83868657 45.26712478 -22.85522461 47.54760742 C-22.87883647 51.04824791 -22.87578332 54.54812816 -22.86914062 58.04882812 C-22.87471653 60.26172331 -22.88182586 62.47461528 -22.890625 64.6875 C-22.88971359 65.73958145 -22.88880219 66.7916629 -22.88786316 67.87562561 C-22.89739517 68.84680832 -22.90692719 69.81799103 -22.91674805 70.81860352 C-22.92135544 71.67559341 -22.92596283 72.53258331 -22.93070984 73.4155426 C-23.19140625 75.49609375 -23.19140625 75.49609375 -25.19140625 77.49609375 C-27.75390625 77.68359375 -27.75390625 77.68359375 -30.19140625 77.49609375 C-31.19140625 76.49609375 -31.19140625 76.49609375 -31.31166077 74.66746521 C-31.30944016 73.87026566 -31.30721954 73.0730661 -31.30493164 72.25170898 C-31.30485611 71.35085068 -31.30478058 70.44999237 -31.30470276 69.52183533 C-31.29954147 68.54267654 -31.29438019 67.56351776 -31.2890625 66.5546875 C-31.28694008 65.05857689 -31.28694008 65.05857689 -31.28477478 63.53224182 C-31.27915739 60.33266251 -31.26660196 57.13315206 -31.25390625 53.93359375 C-31.24889349 51.7701833 -31.2443302 49.60677176 -31.24023438 47.44335938 C-31.22918231 42.12757746 -31.21190604 36.81184729 -31.19140625 31.49609375 C-37.13140625 31.49609375 -43.07140625 31.49609375 -49.19140625 31.49609375 C-49.19140625 83.63609375 -49.19140625 135.77609375 -49.19140625 189.49609375 C-45.89140625 189.49609375 -42.59140625 189.49609375 -39.19140625 189.49609375 C-39.34287109 188.56152344 -39.49433594 187.62695312 -39.65039062 186.6640625 C-45.25087538 151.72916813 -48.9062132 117.92793743 -28.1328125 87.0234375 C-22.71530918 79.97087282 -16.61770003 74.22816145 -8.80859375 69.9453125 C-6.94071872 68.57269523 -6.94071872 68.57269523 -6.76171875 66.015625 C-6.9273425 63.44885395 -6.9273425 63.44885395 -8.69300842 62.17723083 C-10.79706436 59.81657174 -10.57812984 58.20906497 -10.59545898 55.07836914 C-10.61448524 53.41633202 -10.61448524 53.41633202 -10.63389587 51.72071838 C-10.63096024 50.52381882 -10.6280246 49.32691925 -10.625 48.09375 C-10.63024185 46.86450302 -10.6354837 45.63525604 -10.6408844 44.36875916 C-10.64896047 41.10028543 -10.64182574 37.83222977 -10.6305542 34.56378174 C-10.62782658 31.24487211 -10.66300126 27.92620798 -10.68945312 24.60742188 C-10.69106528 22.08203168 -10.69048733 19.55663894 -10.6875 17.03125 C-10.69873398 15.83637466 -10.70996796 14.64149933 -10.72154236 13.41041565 C-10.71216141 12.29923874 -10.70278046 11.18806183 -10.69311523 10.04321289 C-10.69294907 9.06630997 -10.6927829 8.08940704 -10.69261169 7.082901 C-9.52596267 1.06162533 -5.5544217 -0.00943304 0 0 Z " fill="#070606" transform="translate(650.19140625,274.50390625)"/>
<path d="M0 0 C29.79680318 -1.02175065 55.53098542 8.87348019 77.68847656 28.48046875 C88.6427931 38.8946649 95.80459878 51.45607139 101.97363281 65.078125 C102.39644531 66.01140625 102.81925781 66.9446875 103.25488281 67.90625 C112.5766703 90.92824032 110.73103155 118.23968087 101.97363281 141.078125 C90.37004637 168.09644651 70.77697188 187.26427963 43.97363281 199.078125 C18.76470376 208.90369479 -10.08835574 208.66751415 -35.02636719 198.078125 C-60.93226277 185.86296274 -80.74446301 165.70169486 -90.78027344 138.75 C-97.12487103 120.05432057 -99.35815275 101.54374368 -95.02636719 82.078125 C-94.84332031 81.14226562 -94.66027344 80.20640625 -94.47167969 79.2421875 C-88.96283467 53.87429622 -72.39370124 31.00480833 -51.02636719 16.5703125 C-35.51020712 6.60344308 -18.44032213 0.71095218 0 0 Z " fill="#070606" transform="translate(312.0263671875,272.921875)"/>
<path d="M0 0 C20.54681748 0 41.07532763 0.04071309 61.6171875 0.33203125 C63.61959736 0.35935704 65.62200727 0.38667983 67.62441927 0.41384798 C75.54008464 0.52138197 83.4556753 0.63383179 91.37125015 0.74781036 C95.14452633 0.80211983 98.91781318 0.85564431 102.69110388 0.90893483 C162.14221112 1.74902353 221.5874759 2.85525155 281.03271484 4.03442383 C282.16577021 4.05689778 282.16577021 4.05689778 283.32171559 4.07982576 C298.5479002 4.38214414 313.7739317 4.69182158 329 5 C329 32.39 329 59.78 329 88 C318.69426205 88 308.41099044 87.97871778 298.11094666 87.7722168 C296.8223531 87.74771548 295.53375954 87.72321417 294.20611769 87.69797039 C290.68720638 87.63101898 287.16833688 87.56206726 283.64947164 87.49274206 C279.83312521 87.41792318 276.01674198 87.34502586 272.20036316 87.2718811 C265.60737483 87.1452633 259.01441036 87.0174602 252.42146111 86.88882446 C242.88946319 86.70284639 233.35743057 86.51869876 223.82538886 86.33498085 C208.355817 86.03677567 192.88627371 85.73711455 177.41674805 85.43652344 C162.40016134 85.14473662 147.38356144 84.85364443 132.36694336 84.56347656 C131.43946704 84.54555459 130.51199072 84.52763262 129.55640905 84.50916755 C124.90297983 84.41925184 120.24955034 84.32934969 115.59612072 84.23945427 C77.06403958 83.49507016 38.53201025 82.74804629 0 82 C0 54.94 0 27.88 0 0 Z " fill="#FEFEFE" transform="translate(466,712)"/>
<path d="M0 0 C-0.01047363 0.83136475 -0.02094727 1.66272949 -0.03173828 2.51928711 C-0.0661057 5.64476471 -0.09103659 8.77014502 -0.10986328 11.89575195 C-0.12470245 13.89736377 -0.15013361 15.89888812 -0.17578125 17.90039062 C-0.38359665 31.17434927 -0.38359665 31.17434927 5 43 C7.33163242 45.33163242 8.59586111 45.9385006 11.875 46.4375 C19.62942757 45.35188014 24.38665914 38.83088237 29 33 C30.41324592 30.84631289 31.73809793 28.68306211 32.9921875 26.43359375 C33.49105469 25.72396484 33.49105469 25.72396484 34 25 C34.66 25 35.32 25 36 25 C36.53109375 26.02480469 37.0621875 27.04960938 37.609375 28.10546875 C38.3226349 29.46629356 39.03619238 30.82696242 39.75 32.1875 C40.09804688 32.86103516 40.44609375 33.53457031 40.8046875 34.22851562 C43.82063819 39.95323684 46.82915792 45.33531819 53 48 C57.75947672 48.69089178 60.69860228 48.69649125 64.625 45.8125 C75.5581321 35.1526962 78.94657904 14.49754341 82 0 C96.57052529 6.56474217 108.66647328 15.82476276 120 27 C120.84046875 27.82757812 121.6809375 28.65515625 122.546875 29.5078125 C130.23286819 37.5120156 136.09267395 46.6503901 142 56 C142.44375977 56.68835938 142.88751953 57.37671875 143.34472656 58.0859375 C159.05919688 82.58097235 172.81646745 115.19001683 167.28125 144.8515625 C164.48515993 154.48003395 160.38229286 162.24391907 152 168 C143.55464262 172.37348864 135.34884312 172.13743635 126.0625 172.0625 C124.46438477 172.05573242 124.46438477 172.05573242 122.83398438 172.04882812 C120.22259709 172.03711787 117.61132876 172.02071724 115 172 C115.15984375 171.11957031 115.3196875 170.23914063 115.484375 169.33203125 C116.71179903 161.40026839 116.95976804 153.19957826 113 146 C108.88838503 140.64460169 104.33989041 136.12284825 99 132 C106.02927527 126.64306682 113.12648381 122.02051891 121 118 C120.67 116.35 120.34 114.7 120 113 C115.68659457 113.61620078 112.21860559 114.59379814 108 116 C106.02 104.12 106.02 104.12 104 92 C102.35 91.67 100.7 91.34 99 91 C97.45952508 95.9886903 98.53175885 100.43087128 99.4375 105.4375 C101.51900541 117.19027945 101.51900541 117.19027945 101 121 C97.1662606 126.40169574 91.97011824 129.80396318 85.53125 131.06640625 C83.09648996 131.44549449 80.66258941 131.75289767 78.21508789 132.03759766 C70.60577617 132.92375299 64.10325858 135.08362148 57 138 C55.33374189 138.66768714 53.66713815 139.33451326 52 140 C51.83918945 139.04448242 51.67837891 138.08896484 51.51269531 137.10449219 C47.81531935 114.95088642 47.81531935 114.95088642 43.6875 92.875 C43.52862305 92.06643555 43.36974609 91.25787109 43.20605469 90.42480469 C42.73182439 86.917686 42.73182439 86.917686 41 84 C38.9145818 83.8761366 36.82499859 83.82200933 34.73608398 83.79467773 C34.08244873 83.78477814 33.42881348 83.77487854 32.75537109 83.76467896 C30.58564936 83.73298366 28.4159057 83.70827508 26.24609375 83.68359375 C24.74536048 83.66303113 23.2446331 83.64203485 21.74391174 83.62062073 C17.78688307 83.56532845 13.82980151 83.51595089 9.87268066 83.46777344 C5.8375984 83.4176105 1.80259328 83.36189732 -2.23242188 83.30664062 C-10.15488277 83.1989716 -18.07740804 83.09754621 -26 83 C-25.69337893 80.59198995 -25.38294707 78.18457414 -25.0703125 75.77734375 C-24.98434814 75.09909546 -24.89838379 74.42084717 -24.80981445 73.7220459 C-24.357727 70.2641026 -23.81988868 66.91991501 -22.875 63.5625 C-21.87824611 59.50428774 -21.85142838 56.16000534 -22 52 C-23.65 52 -25.3 52 -27 52 C-29.57529816 61.95001564 -31.79482425 71.96264831 -34 82 C-43.57 82 -53.14 82 -63 82 C-61.87371057 72.98968453 -61.87371057 72.98968453 -60.43359375 69.7734375 C-60.11712891 69.05873291 -59.80066406 68.34402832 -59.47460938 67.60766602 C-59.13236328 66.87088623 -58.79011719 66.13410645 -58.4375 65.375 C-58.08107422 64.59374756 -57.72464844 63.81249512 -57.35742188 63.00756836 C-52.04482723 51.56191464 -45.74981299 40.98505317 -38 31 C-37.28972656 30.07316406 -36.57945312 29.14632812 -35.84765625 28.19140625 C-29.26212489 19.84664682 -12.30871269 0 0 0 Z " fill="#FD422D" transform="translate(649,500)"/>
<path d="M0 0 C0.176521 0.78238037 0.35304199 1.56476074 0.53491211 2.37084961 C1.3320027 5.89393234 2.1346738 9.41572007 2.9375 12.9375 C3.21529297 14.16919922 3.49308594 15.40089844 3.77929688 16.66992188 C4.04677734 17.83974609 4.31425781 19.00957031 4.58984375 20.21484375 C4.83597412 21.29886475 5.08210449 22.38288574 5.33569336 23.49975586 C5.75564551 25.92291882 5.75564551 25.92291882 7 27 C10.00531536 27.15029664 12.98973248 27.23616772 15.99731445 27.28125 C16.94425171 27.29929687 17.89118896 27.31734375 18.86682129 27.3359375 C22.03224254 27.39516718 25.1977418 27.44750007 28.36328125 27.5 C30.58490353 27.54054097 32.80651705 27.58156447 35.02812195 27.62304688 C40.92439921 27.73206279 46.8207608 27.83549784 52.71716309 27.9375 C62.0044572 28.09894687 71.2916185 28.26791499 80.57876205 28.43777466 C82.85424152 28.47930324 85.12972629 28.52054203 87.40521622 28.56149292 C100.88831277 28.80486951 114.36788197 29.09486494 127.84719276 29.49722099 C130.06096874 29.56121366 132.2748103 29.61912132 134.48881531 29.67457581 C140.32293161 29.82240949 146.14540788 29.9898472 151.97045898 30.35913086 C163.83054446 30.98663953 171.92494416 28.14876988 182.4354248 22.7901001 C201.25982004 13.3176192 217.23285534 11.15868142 238.0514679 12.00013733 C247.55397713 12.27222118 255.81101219 9.63527612 264 5 C264.33 4.67 264.66 4.34 265 4 C267.83972535 3.67648699 270.68073737 3.4869571 273.53125 3.28125 C275.9413605 3.26614735 275.9413605 3.26614735 277 2 C278.62127423 1.90138402 280.24682368 1.87201233 281.87109375 1.87060547 C282.90886963 1.86745331 283.94664551 1.86430115 285.01586914 1.86105347 C286.70957642 1.86408981 286.70957642 1.86408981 288.4375 1.8671875 C289.58790771 1.86623077 290.73831543 1.86527405 291.92358398 1.86428833 C294.36149144 1.86360631 296.7994007 1.8654621 299.23730469 1.86962891 C302.98376518 1.87497683 306.73010577 1.86968461 310.4765625 1.86328125 C312.83854193 1.86394203 315.20052129 1.86522318 317.5625 1.8671875 C318.69163818 1.86516327 319.82077637 1.86313904 320.98413086 1.86105347 C322.54079468 1.86578171 322.54079468 1.86578171 324.12890625 1.87060547 C325.04744385 1.87140106 325.96598145 1.87219666 326.91235352 1.87301636 C329 2 329 2 330 3 C330.09514592 5.70838086 330.12554932 8.39118513 330.11352539 11.09985352 C330.11367142 11.94856018 330.11381744 12.79726685 330.1139679 13.67169189 C330.11326848 16.49078891 330.10547478 19.30982071 330.09765625 22.12890625 C330.09579217 24.07803817 330.09436822 26.02717055 330.09336853 27.9763031 C330.08954255 33.11706832 330.07971159 38.25780547 330.06866455 43.39855957 C330.05845215 48.64005148 330.05387128 53.8815479 330.04882812 59.12304688 C330.03808939 69.41537694 330.02101201 79.70768614 330 90 C325.375 92.125 325.375 92.125 322 91 C319.83462288 92.22704703 317.89410488 93.49731655 315.875 94.9375 C314.52395735 95.86983319 313.17094326 96.79931339 311.81640625 97.7265625 C311.05859863 98.24637695 310.30079102 98.76619141 309.52001953 99.30175781 C304.6778118 102.56492357 299.73863017 105.67813298 294.8125 108.8125 C285.84897113 114.52809815 276.9131793 120.28309475 268.0168457 126.1027832 C267.24945068 126.60382568 266.48205566 127.10486816 265.69140625 127.62109375 C265.02310791 128.0586499 264.35480957 128.49620605 263.66625977 128.94702148 C262 130 262 130 260 131 C258.9590934 132.64142963 257.95495674 134.30712215 257 136 C252.125 135.125 252.125 135.125 251 134 C250.90490441 131.38311559 250.87444 128.792711 250.88647461 126.17553711 C250.88632858 125.35609116 250.88618256 124.5366452 250.8860321 123.69236755 C250.88673148 120.97066647 250.89452499 118.24903295 250.90234375 115.52734375 C250.90420784 113.64547259 250.90563179 111.76360094 250.90663147 109.88172913 C250.91045733 104.91851471 250.92028819 99.95532936 250.93133545 94.99212646 C250.9415481 89.93160394 250.94612878 84.87107673 250.95117188 79.81054688 C250.9619104 69.87368512 250.97898764 59.93684497 251 50 C249.89342041 50.00458221 248.78684082 50.00916443 247.64672852 50.0138855 C219.63490374 50.11856127 191.64783055 49.82998207 163.6421814 49.25949097 C151.80987015 49.01871014 139.97722061 48.79552061 128.14453125 48.57421875 C126.88809122 48.55063608 125.63165119 48.52705341 124.33713722 48.50275612 C102.43778661 48.09411256 80.53774491 47.76121877 58.63671875 47.45703125 C57.84755522 47.44604243 57.0583917 47.43505362 56.24531412 47.4237318 C41.32140989 47.21597247 26.39745658 47.01189475 11.47338867 46.81622314 C2.71530046 46.70139451 -6.04276054 46.58471672 -14.80078125 46.46484375 C-15.8315163 46.45077091 -15.8315163 46.45077091 -16.88307428 46.43641376 C-37.26238936 46.15699381 -57.63331265 45.7884656 -78 45 C-77.99555878 46.0353891 -77.99111755 47.0707782 -77.98654175 48.13754272 C-77.94605787 57.8789939 -77.91604558 67.62042809 -77.89637566 77.3619442 C-77.88592333 82.37056347 -77.87173779 87.37911502 -77.84912109 92.38769531 C-77.82744425 97.21818333 -77.8154423 102.04860606 -77.81024551 106.87913895 C-77.80654046 108.72519585 -77.79930575 110.57124906 -77.78853989 112.41727829 C-77.77409343 114.99620124 -77.77201917 117.57485191 -77.77294922 120.15380859 C-77.76216339 121.30718971 -77.76216339 121.30718971 -77.75115967 122.48387146 C-77.77189568 127.77189568 -77.77189568 127.77189568 -80 130 C-82.5 130.25 -82.5 130.25 -85 130 C-87.58389279 127.41610721 -87.2487763 125.65817346 -87.28216553 122.13642883 C-87.27968811 121.31611679 -87.27721069 120.49580475 -87.2746582 119.65063477 C-87.27976913 118.78709381 -87.28488007 117.92355286 -87.29014587 117.03384399 C-87.30408459 114.16962824 -87.30308188 111.30565196 -87.30078125 108.44140625 C-87.30466588 106.45604868 -87.30900006 104.47069195 -87.31376648 102.4853363 C-87.32123794 98.31986805 -87.32093076 94.15448453 -87.31567383 89.98901367 C-87.30987849 84.64429017 -87.32680732 79.29991312 -87.3500185 73.95524693 C-87.36473244 69.85379499 -87.36563073 65.75242694 -87.36250877 61.65095329 C-87.36302318 59.68012747 -87.36828322 57.7092971 -87.37832069 55.73849678 C-87.3906223 52.98502049 -87.3839313 50.23222472 -87.37231445 47.47875977 C-87.37995819 46.66047195 -87.38760193 45.84218414 -87.39547729 44.99909973 C-87.34323228 39.41214661 -87.34323228 39.41214661 -85.62184429 37.3451376 C-83.52055686 35.60235579 -81.37372841 34.61572148 -78.8828125 33.49609375 C-77.81828857 33.01124512 -76.75376465 32.52639648 -75.65698242 32.02685547 C-74.49142822 31.50236816 -73.32587402 30.97788086 -72.125 30.4375 C-69.60026857 29.28818291 -67.07888932 28.13166503 -64.55859375 26.97265625 C-63.88679581 26.66392578 -63.21499786 26.35519531 -62.52284241 26.03710938 C-52.04985909 21.20186877 -41.71106432 16.08292433 -31.35400391 11.00561523 C-30.58519394 10.62941544 -29.81638397 10.25321564 -29.02427673 9.86561584 C-27.58838431 9.16277669 -26.15323317 8.45842001 -24.7190094 7.75218201 C-12.96684423 1.99844109 -12.96684423 1.99844109 -7.25 0.8125 C-6.51265625 0.65394531 -5.7753125 0.49539063 -5.015625 0.33203125 C-3 0 -3 0 0 0 Z " fill="#080808" transform="translate(544,667)"/>
<path d="M0 0 C17.28751439 12.79998887 28.59650344 30.53115573 32.0546875 51.80859375 C32.76444942 57.94573555 32.72670017 64.11461635 32.7421875 70.28515625 C32.74452393 70.95660675 32.74686035 71.62805725 32.74926758 72.31985474 C32.76290966 82.88983272 32.08676684 93.27694383 30.9921875 103.78515625 C29.81015299 115.14379032 29.20349763 126.36247147 29.2421875 137.78515625 C29.24541016 139.09991943 29.24863281 140.41468262 29.25195312 141.76928711 C29.32013802 148.68153061 29.6324625 155.48685081 30.4921875 162.34765625 C26.8172889 160.58612242 23.68679802 158.33659114 20.4296875 155.91015625 C13.92738174 151.14526236 7.11453168 147.09495901 0.06616211 143.19165039 C-3.46302449 141.21591393 -6.75165641 139.27513437 -9.828125 136.63671875 C-12.07018402 134.72149049 -13.67581278 133.56381615 -16.3828125 132.53515625 C-17.4140625 132.14328125 -18.4453125 131.75140625 -19.5078125 131.34765625 C-19.5078125 126.39765625 -19.5078125 121.44765625 -19.5078125 116.34765625 C-17.8371875 115.48140625 -16.1665625 114.61515625 -14.4453125 113.72265625 C-7.33205963 109.86672306 -7.33205963 109.86672306 -1.5078125 104.34765625 C-0.91817572 101.58990283 -0.91817572 101.58990283 -1.5078125 99.34765625 C-4.44074506 99.09261864 -6.03500068 99.04091845 -8.54296875 100.66796875 C-9.54650391 101.56128906 -9.54650391 101.56128906 -10.5703125 102.47265625 C-25.9093154 115.02274953 -45.21071742 118.70276807 -64.5078125 117.34765625 C-77.37645264 115.72583976 -89.85807886 110.76287046 -98.109375 100.3984375 C-105.10863069 90.13416589 -105.68884107 79.4888336 -104.5078125 67.34765625 C-102.7011044 60.16754904 -99.11450878 54.22643551 -94.64453125 48.3828125 C-93.25152386 45.88880271 -93.29745313 44.16060125 -93.5078125 41.34765625 C-95.84923608 40.93965838 -95.84923608 40.93965838 -98.5078125 41.34765625 C-100.60464366 43.45574247 -100.60464366 43.45574247 -102.2578125 46.22265625 C-103.14726563 47.58003906 -103.14726563 47.58003906 -104.0546875 48.96484375 C-105.49382531 51.24978664 -105.49382531 51.24978664 -106.5078125 53.34765625 C-109.16015625 53.9453125 -109.16015625 53.9453125 -112.4453125 54.41015625 C-116.61643826 54.92911634 -116.61643826 54.92911634 -120.5078125 56.34765625 C-121.75866356 41.02473076 -114.10861733 23.9959518 -104.4375 12.43359375 C-97.93427506 5.40379189 -91.78503838 0.50793801 -82.87890625 -3.16796875 C-80.25196196 -4.45525798 -80.25196196 -4.45525798 -79.66796875 -7.32421875 C-79.61511719 -8.0925 -79.56226563 -8.86078125 -79.5078125 -9.65234375 C-76.5378125 -10.64234375 -73.5678125 -11.63234375 -70.5078125 -12.65234375 C-69.8478125 -11.66234375 -69.1878125 -10.67234375 -68.5078125 -9.65234375 C-65.1388382 -10.2675997 -62.00577306 -11.14425802 -58.7578125 -12.21484375 C-38.69263519 -17.60668952 -16.94044982 -11.16169825 0 0 Z " fill="#FCFCFC" transform="translate(735.5078125,350.65234375)"/>
<path d="M0 0 C11.91665535 -0.03108656 23.83330971 -0.05114568 35.75 -0.0625 C36.64197083 -0.06335602 37.53394165 -0.06421204 38.45294189 -0.06509399 C65.30596559 -0.08781741 92.15035195 0.06857109 119 0.5 C119.74465012 0.51195782 120.48930023 0.52391563 121.2565155 0.53623581 C130.17119904 0.68032287 139.08568879 0.83436786 148 1 C148.13345322 1.81698868 148.26690643 2.63397736 148.40440369 3.47572327 C148.58153397 4.55115891 148.75866425 5.62659454 148.94116211 6.73461914 C149.20321693 8.33135216 149.20321693 8.33135216 149.4705658 9.96034241 C149.89752754 12.41167159 150.3760955 14.82407139 150.94140625 17.24609375 C152.52863788 24.13235626 153.69044106 31.10832172 154.9375 38.0625 C155.44580148 40.88686564 155.95513925 43.7110435 156.46484375 46.53515625 C156.59109634 47.23549988 156.71734894 47.93584351 156.84742737 48.65740967 C157.73021128 53.54229492 158.63600683 58.42252841 159.5546875 63.30078125 C160.79754001 69.90332232 162.01653988 76.50930316 163.1875 83.125 C163.36474609 84.09953125 163.54199219 85.0740625 163.72460938 86.078125 C163.97500977 87.49738281 163.97500977 87.49738281 164.23046875 88.9453125 C164.37895264 89.77562988 164.52743652 90.60594727 164.68041992 91.46142578 C165.04134981 94.3284609 165.05172606 97.11331838 165 100 C143.19493422 100.20148418 121.4006502 99.66712048 99.60205078 99.20043945 C94.21477221 99.08512694 88.82741476 98.97413478 83.44002151 98.86432838 C61.95196065 98.42473196 40.47171619 97.9747944 19 97 C17.27959077 92.21808747 16.18627465 87.47489881 15.21240234 82.50366211 C14.96324821 81.25618446 14.96324821 81.25618446 14.70906067 79.98350525 C14.16404514 77.2488908 13.62476562 74.51318357 13.0859375 71.77734375 C12.70785641 69.86971549 12.32956757 67.9621284 11.95108032 66.05458069 C11.16009894 62.06318197 10.37203011 58.07122174 9.5859375 54.07885742 C8.57858674 48.96430961 7.56339618 43.85135452 6.54594994 38.73880672 C5.76362754 34.80267844 4.98576569 30.86567872 4.20921707 26.92840767 C3.83667825 25.0426841 3.46268277 23.15724769 3.08720016 21.27210808 C2.5631566 18.63793179 2.04520528 16.00262784 1.52880859 13.36694336 C1.2950779 12.20180206 1.2950779 12.20180206 1.05662537 11.01312256 C0.33447535 7.29381518 -0.18328601 3.79242822 0 0 Z " fill="#DADADA" transform="translate(537,590)"/>
<path d="M0 0 C0.89556764 -0.00500704 1.79113527 -0.01001407 2.71384132 -0.01517284 C3.70591846 -0.01049051 4.6979956 -0.00580817 5.72013569 -0.00098395 C7.29795108 -0.00534428 7.29795108 -0.00534428 8.90764153 -0.00979269 C12.47388358 -0.0171598 16.03995718 -0.01011825 19.60619831 -0.00326896 C22.17212577 -0.00557074 24.73805256 -0.00874535 27.30397797 -0.01272345 C32.90420516 -0.01996812 38.50439384 -0.01971468 44.10462284 -0.01462913 C52.43213155 -0.00708735 60.75960757 -0.01091952 69.08711603 -0.01704574 C83.95703585 -0.02759709 98.82693852 -0.02665655 113.69685999 -0.02088792 C126.70947778 -0.01586435 139.72208927 -0.01453987 152.73470783 -0.0169332 C153.5965878 -0.01708597 154.45846777 -0.01723874 155.34646531 -0.01739614 C158.84478143 -0.01801878 162.34309755 -0.01865558 165.84141366 -0.01931567 C198.68386436 -0.02543892 231.52630411 -0.01987843 264.36875312 -0.00912188 C293.57168668 0.00036991 322.7746028 -0.00047932 351.9775362 -0.01004386 C384.75845609 -0.02074428 417.53936631 -0.02500473 450.3202877 -0.01881933 C453.81237062 -0.01817786 457.30445353 -0.01755218 460.79653645 -0.0169332 C462.08637407 -0.01669597 462.08637407 -0.01669597 463.40226903 -0.01645395 C476.40932484 -0.01417534 489.41637368 -0.01684635 502.42342854 -0.02189231 C517.20737846 -0.02759887 531.99130849 -0.02620679 546.77525592 -0.01533082 C555.05767468 -0.0094394 563.34005042 -0.00910192 571.62246811 -0.01662317 C577.79140703 -0.02160916 583.96029467 -0.01623806 590.12922728 -0.00667402 C592.63658823 -0.00442478 595.14395489 -0.00560998 597.65131223 -0.0104256 C601.0379956 -0.01643517 604.42443819 -0.01034308 607.81110859 -0.00098395 C608.80318573 -0.00566629 609.79526287 -0.01034862 610.81740296 -0.01517284 C612.16075441 -0.00766228 612.16075441 -0.00766228 613.53124428 0 C614.6943445 0.00020328 614.6943445 0.00020328 615.88094169 0.00041066 C617.76562214 0.25069833 617.76562214 0.25069833 619.76562214 2.25069833 C620.01730442 4.59955239 620.01730442 4.59955239 620.01958942 7.60287118 C620.02522907 8.73864099 620.03086872 9.87441079 620.03667927 11.04459786 C620.03060658 12.92262345 620.03060658 12.92262345 620.0244112 14.83858895 C620.02966816 16.80930619 620.02966816 16.80930619 620.03503132 18.8198359 C620.04416874 22.4292781 620.04060555 26.03860629 620.03427315 29.64805055 C620.02922012 33.42010333 620.03390265 37.19214615 620.03704548 40.9641993 C620.04068717 47.29946296 620.03588073 53.63468002 620.02636433 59.96993661 C620.01547937 67.30106504 620.0190048 74.63208223 620.03001714 81.96320796 C620.03908426 88.25028603 620.04037812 94.53733056 620.0351398 100.82441306 C620.03201692 104.58260031 620.03161943 108.34073523 620.03821278 112.09891915 C620.04504662 116.28694935 620.0355829 120.47478688 620.0244112 124.6628077 C620.02845966 125.91482476 620.03250813 127.16684182 620.03667927 128.45679879 C620.0282198 130.1604535 620.0282198 130.1604535 620.01958942 131.89852548 C620.01883537 132.88962068 620.01808132 133.88071588 620.01730442 134.90184426 C619.76562214 137.25069833 619.76562214 137.25069833 617.76562214 139.25069833 C613.21006658 138.69514277 613.21006658 138.69514277 611.76562214 137.25069833 C611.76562214 94.68069833 611.76562214 52.11069833 611.76562214 8.25069833 C410.46562214 8.25069833 209.16562214 8.25069833 1.76562214 8.25069833 C1.76562214 136.62069833 1.76562214 264.99069833 1.76562214 397.25069833 C126.73413655 397.17145432 126.73413655 397.17145432 251.70263386 397.07052255 C275.8146944 397.06148934 275.8146944 397.06148934 287.08498859 397.05981088 C294.99491269 397.05793961 302.90480879 397.05057723 310.81472492 397.0395472 C319.92643413 397.02686 329.03811634 397.0210162 338.14983446 397.02380843 C342.8157022 397.02501874 347.4815095 397.02303541 352.14736629 397.01226807 C356.35937326 397.00260662 360.57127648 397.00200469 364.783288 397.00889611 C366.31272626 397.00975027 367.84217076 397.00716198 369.37159657 397.00093317 C371.44283542 396.9929878 373.51369353 396.99718277 375.58492565 397.00460267 C377.3153112 397.00346351 377.3153112 397.00346351 379.08065403 397.00230134 C381.76562214 397.25069833 381.76562214 397.25069833 383.76562214 399.25069833 C383.89062214 401.87569833 383.89062214 401.87569833 383.76562214 404.25069833 C380.96166764 405.65267558 378.65358156 405.37743865 375.51521873 405.37933278 C374.53806958 405.38196234 374.53806958 405.38196234 373.54118004 405.38464502 C371.3371698 405.38933274 369.13322472 405.38683244 366.92921162 405.3844111 C365.34157489 405.38627768 363.75393863 405.38857776 362.1663031 405.39127642 C357.7870025 405.39741975 353.40772092 405.39725786 349.02841699 405.39608204 C344.3119196 405.39587867 339.59542843 405.40139065 334.87893391 405.40613961 C325.63248121 405.41446047 316.38603489 405.41719509 307.13957877 405.41775199 C299.62725511 405.41822645 292.11493357 405.42027768 284.60261059 405.42345262 C263.32467437 405.43226292 242.04674321 405.43687138 220.76880515 405.43612214 C219.62073083 405.43608219 218.47265651 405.43604223 217.28979206 405.43600106 C216.14032331 405.43596018 214.99085456 405.4359193 213.80655342 405.43587718 C195.16893608 405.43547055 176.53133893 405.44504343 157.89372743 405.45913943 C138.77722841 405.47348407 119.66073924 405.48041068 100.54423469 405.47954565 C89.80351849 405.47921303 79.06282345 405.48198854 68.32211208 405.4927237 C59.17864207 405.50180357 50.03520281 405.50402473 40.89173026 405.49721428 C36.22308386 405.49393637 31.55449655 405.49393789 26.88585567 405.50256753 C22.61681645 405.51037766 18.34788373 405.50905788 14.07884728 405.5002834 C12.5297383 405.49873621 10.98062159 405.50060986 9.43152172 405.50614347 C7.33483882 405.51314044 5.23853609 405.5079603 3.14186668 405.4995873 C1.39089372 405.49991335 1.39089372 405.49991335 -0.39545244 405.50024599 C-3.23437786 405.25069833 -3.23437786 405.25069833 -6.23437786 403.25069833 C-6.60927469 400.43337893 -6.60927469 400.43337893 -6.60910797 396.74762368 C-6.61519906 395.72950417 -6.61519906 395.72950417 -6.6214132 394.69081658 C-6.63143791 392.39371917 -6.61988775 390.09722147 -6.60859966 387.8001368 C-6.61133755 386.14578853 -6.61538729 384.49144198 -6.62064332 382.83709979 C-6.63127885 378.27338102 -6.62306985 373.70985672 -6.61189282 369.1461463 C-6.6030831 364.23129631 -6.61148494 359.31647267 -6.61775494 354.40162301 C-6.6272639 344.76645408 -6.62062479 335.1313598 -6.60849199 325.49619639 C-6.59490021 314.28661208 -6.59650735 303.07704575 -6.59862532 291.8674553 C-6.60181827 271.87295453 -6.59012997 251.87848933 -6.5705595 231.88399911 C-6.55155404 212.46178756 -6.54447158 193.03961772 -6.55005169 173.61739755 C-6.55610328 152.49150829 -6.5559438 131.3656374 -6.54456586 110.23974967 C-6.54335851 107.98901995 -6.54215252 105.73829023 -6.54094791 103.48756051 C-6.54034438 102.38002369 -6.53974084 101.27248688 -6.53911901 100.13138834 C-6.53523224 92.30912111 -6.53563641 84.48686071 -6.53753376 76.66459298 C-6.53965128 67.13790914 -6.53446535 57.61126191 -6.51992021 48.08458841 C-6.51265394 43.2196203 -6.50861811 38.35470564 -6.51316357 33.48973298 C-6.5172178 29.04248259 -6.51213825 24.59534291 -6.49953749 20.14810938 C-6.49659155 18.53307282 -6.49706849 16.91802593 -6.50118057 15.30299193 C-6.50623762 13.11978414 -6.49916706 10.93695401 -6.48885345 8.75377297 C-6.48798668 7.53747374 -6.4871199 6.32117451 -6.48622686 5.06801772 C-6.07306462 0.44616098 -4.18937317 0.00073218 0 0 Z " fill="#030303" transform="translate(140.23437786102295,205.7493016719818)"/>
<path d="M0 0 C0.40062819 11.71162803 0.69922676 23.42153208 0.88080692 35.13871098 C0.96813188 40.58482654 1.08568176 46.02613553 1.2824707 51.46948242 C2.32938087 81.24178842 -0.93097127 103.54373912 -14.91342163 129.98617554 C-17.76105872 135.39080003 -20.14747099 140.97884669 -22.52734375 146.6015625 C-23.28026146 148.32160316 -24.03598955 150.04041718 -24.79492188 151.7578125 C-25.1473999 152.55864258 -25.49987793 153.35947266 -25.86303711 154.18457031 C-26.60615526 155.87241605 -27.34932252 157.56024016 -28.0925293 159.24804688 C-29.21732145 161.80308365 -30.34112957 164.35855149 -31.46484375 166.9140625 C-31.79491928 167.6627359 -32.12499481 168.4114093 -32.46507263 169.18276978 C-34.04014876 172.76564525 -35.57579024 176.35355884 -37 180 C-55.19416738 174.79777549 -70.15048634 157.43955137 -79.29003906 141.55273438 C-91.73064776 118.85783217 -94.52144209 92.15452242 -87.68457031 67.25927734 C-82.82352214 51.21643149 -73.70606341 37.91143294 -62 26 C-61.32710937 25.31421875 -60.65421875 24.6284375 -59.9609375 23.921875 C-44.06693825 8.80174088 -21.82431313 -0.07084605 0 0 Z " fill="#DBDBDB" transform="translate(314,281)"/>
<path d="M0 0 C8.84931058 -0.03896387 8.84931058 -0.03896387 11.97265625 0.6640625 C12.96881958 0.88775513 12.96881958 0.88775513 13.98510742 1.1159668 C14.67064697 1.28394775 15.35618652 1.45192871 16.0625 1.625 C16.79637939 1.80393799 17.53025879 1.98287598 18.28637695 2.16723633 C43.47223066 8.59449487 64.81047827 23.75916766 78.26586914 46.24902344 C91.17350836 68.61383429 94.50679014 94.43162827 88.28198242 119.44677734 C86.11141701 127.41681043 82.87700088 134.72643351 79 142 C68.70220945 136.34148711 58.81557421 130.12319953 48.92578125 123.78515625 C42.01483952 119.35889269 35.05297372 115.01551709 28.08642578 110.67749023 C26.24696023 109.53112591 24.41968922 108.36496341 22.60510254 107.17961121 C19.91725419 105.48205934 17.16342343 104.10326218 14.2906189 102.74459839 C1.59292429 96.36241381 1.59292429 96.36241381 -1.06494331 90.75207138 C-2.66075151 84.40891494 -2.18393656 77.95865454 -1.85546875 71.484375 C-1.81997182 69.41656924 -1.792954 67.3486022 -1.77400208 65.28057861 C-1.70188982 59.87071276 -1.51574856 54.47074517 -1.30462646 49.0647583 C-1.10924818 43.5354204 -1.02327706 38.00446038 -0.92773438 32.47265625 C-0.72475231 21.64411789 -0.4010976 10.82288568 0 0 Z " fill="#FE422D" transform="translate(322,281)"/>
<path d="M0 0 C0.176521 0.78238037 0.35304199 1.56476074 0.53491211 2.37084961 C1.3320027 5.89393234 2.1346738 9.41572007 2.9375 12.9375 C3.21529297 14.16919922 3.49308594 15.40089844 3.77929688 16.66992188 C4.04677734 17.83974609 4.31425781 19.00957031 4.58984375 20.21484375 C4.83597412 21.29886475 5.08210449 22.38288574 5.33569336 23.49975586 C5.75564551 25.92291882 5.75564551 25.92291882 7 27 C10.00531536 27.15029664 12.98973248 27.23616772 15.99731445 27.28125 C16.94425171 27.29929687 17.89118896 27.31734375 18.86682129 27.3359375 C22.03224254 27.39516718 25.1977418 27.44750007 28.36328125 27.5 C30.58490353 27.54054097 32.80651705 27.58156447 35.02812195 27.62304688 C40.92439921 27.73206279 46.8207608 27.83549784 52.71716309 27.9375 C62.0044572 28.09894687 71.2916185 28.26791499 80.57876205 28.43777466 C82.85424152 28.47930324 85.12972629 28.52054203 87.40521622 28.56149292 C100.88831277 28.80486951 114.36788197 29.09486494 127.84719276 29.49722099 C130.06096874 29.56121366 132.2748103 29.61912132 134.48881531 29.67457581 C140.32293161 29.82240949 146.14540788 29.9898472 151.97045898 30.35913086 C163.83054446 30.98663953 171.92494416 28.14876988 182.4354248 22.7901001 C201.25982004 13.3176192 217.23285534 11.15868142 238.0514679 12.00013733 C247.55397713 12.27222118 255.81101219 9.63527612 264 5 C264.33 4.67 264.66 4.34 265 4 C266.85287502 3.92773498 268.70833878 3.9161878 270.5625 3.9375 C271.57441406 3.94652344 272.58632813 3.95554687 273.62890625 3.96484375 C274.41136719 3.97644531 275.19382812 3.98804688 276 4 C276.33 5.65 276.66 7.3 277 9 C293.335 9.495 293.335 9.495 310 10 C306.35743374 12.91405301 303.38722977 15.03514841 299.37890625 17.21484375 C298.292146 17.81288818 297.20538574 18.41093262 296.08569336 19.02709961 C293.68056951 20.33652068 291.26679964 21.62881765 288.84985352 22.91625977 C283.29522026 25.90012003 277.968895 28.83450273 273.0859375 32.875 C260.73205472 42.74438398 249.54905446 42.73005654 234.3984375 42.40234375 C232.20256865 42.3759532 230.00666764 42.35213564 227.81074524 42.33065796 C223.05519911 42.27884183 218.30035934 42.2091926 213.54525757 42.12612915 C205.85052213 41.99272086 198.15563209 41.90531063 190.46020508 41.82299805 C174.87615508 41.65121634 159.29304816 41.42609041 143.70981979 41.19248581 C139.12713036 41.12390138 134.54441783 41.05695126 129.96170044 40.99026489 C88.78439551 40.3903335 47.60796099 39.74050035 6.43292618 39.00008392 C2.96851093 38.93805524 -0.49592089 38.8770365 -3.96035767 38.81622314 C-9.36438138 38.72100013 -14.76832806 38.62218716 -20.17223358 38.52048302 C-22.11160168 38.48436929 -24.05098822 38.44922811 -25.99039459 38.4152317 C-38.67713867 38.19135979 -51.33072132 37.70404048 -64 37 C-60.55601445 34.33097612 -56.97892736 32.3947081 -53.05859375 30.5234375 C-52.38228409 30.19665512 -51.70597443 29.86987274 -51.00917053 29.53318787 C-49.56563486 28.83649471 -48.12114302 28.14177983 -46.67578125 27.44888306 C-44.42836065 26.37061512 -42.18455994 25.28511116 -39.94140625 24.19799805 C-33.53553899 21.09957748 -27.12518397 18.02667836 -20.62890625 15.12109375 C-19.74211182 14.72035645 -18.85531738 14.31961914 -17.94165039 13.90673828 C-16.3583064 13.19715447 -14.76788195 12.50308521 -13.16967773 11.82763672 C-10.86577053 10.84474986 -10.86577053 10.84474986 -8 9 C-7.04300281 6.41842289 -7 4.70419776 -7 2 C-4.35261084 0.5393715 -3.10551666 0 0 0 Z " fill="#FBFBFB" transform="translate(544,667)"/>
<path d="M0 0 C5.03574802 1.74275384 9.40467545 4.50108118 13.9375 7.25 C14.8150293 7.77940186 15.69255859 8.30880371 16.59667969 8.85424805 C23.9542316 13.31631028 31.22221166 17.9132516 38.46850586 22.55322266 C46.62481844 27.77573933 54.83342103 32.91177071 63.05761719 38.02661133 C67.75314904 40.95116817 72.4233684 43.89221976 77 47 C69.42921747 63.78060045 50.87278394 76.07289845 34.13671875 82.56640625 C30.45009194 83.84887767 26.7636499 84.96692064 23 86 C21.89527344 86.31839844 20.79054688 86.63679688 19.65234375 86.96484375 C2.81594152 91.23794233 -19.17276782 90.91361609 -35 83 C-34.3560465 79.00482243 -33.10963175 75.64811751 -31.47265625 71.953125 C-31.21199875 71.36080582 -30.95134125 70.76848663 -30.68278503 70.15821838 C-29.81396109 68.18674355 -28.93817533 66.21844001 -28.0625 64.25 C-27.4477226 62.85789536 -26.83347713 61.4655557 -26.21972656 60.07299805 C-24.882697 57.0409584 -23.54302957 54.01010258 -22.20166016 50.97998047 C-18.60423816 42.8489492 -15.03294507 34.706413 -11.45895386 26.56506348 C-10.26296044 23.84200851 -9.06536544 21.11966276 -7.86743164 18.39746094 C-7.12513997 16.70899439 -6.38287005 15.02051829 -5.640625 13.33203125 C-5.1321125 12.17774376 -5.1321125 12.17774376 -4.61332703 11.00013733 C-3.01267714 7.35611005 -1.44737159 3.7085466 0 0 Z " fill="#45B2FD" transform="translate(319,382)"/>
<path d="M0 0 C0.38636629 9.89990576 0.71196765 19.79979741 0.96108532 29.7041626 C1.07866755 34.30388001 1.21675152 38.90102924 1.40258789 43.49853516 C1.58133163 47.93960268 1.7050433 52.37917859 1.79146767 56.82296753 C1.83387482 58.51394565 1.89576507 60.20455582 1.9778347 61.89407349 C2.60147575 75.12231703 2.60147575 75.12231703 -1.36883545 79.77738953 C-4.16392433 81.83631632 -6.89978641 83.44959375 -10 85 C-11.33529333 85.84543613 -12.66356784 86.70236339 -13.9765625 87.58203125 C-15.19037147 88.32932987 -16.40654579 89.07279953 -17.625 89.8125 C-19.0046283 90.6628922 -20.38350948 91.51449743 -21.76171875 92.3671875 C-22.45958496 92.79870117 -23.15745117 93.23021484 -23.87646484 93.67480469 C-27.4232614 95.88818842 -30.93091264 98.16113093 -34.4375 100.4375 C-35.13198242 100.88762451 -35.82646484 101.33774902 -36.54199219 101.80151367 C-40.28202925 104.22805455 -44.01576425 106.66403399 -47.74609375 109.10546875 C-48.52090088 109.61086182 -49.29570801 110.11625488 -50.09399414 110.63696289 C-51.58333244 111.6085477 -53.07088614 112.58287517 -54.55639648 113.56030273 C-55.56101929 114.21494507 -55.56101929 114.21494507 -56.5859375 114.8828125 C-57.1742334 115.26840332 -57.7625293 115.65399414 -58.36865234 116.05126953 C-60 117 -60 117 -63 118 C-63 90.61 -63 63.22 -63 35 C-54.09 30.05 -45.18 25.1 -36 20 C-26.67687749 14.57868485 -26.67687749 14.57868485 -17.375 9.12109375 C-1.7961146 0 -1.7961146 0 0 0 Z " fill="#FEFEFE" transform="translate(866,680)"/>
<path d="M0 0 C5.94 0 11.88 0 18 0 C18 39.27 18 78.54 18 119 C12.06 119 6.12 119 0 119 C0 79.73 0 40.46 0 0 Z " fill="#45B3FE" transform="translate(553,345)"/>
<path d="M0 0 C1.19173828 -0.00064453 2.38347656 -0.00128906 3.61132812 -0.00195312 C5.47241211 0.02801758 5.47241211 0.02801758 7.37109375 0.05859375 C9.23797852 0.04795898 9.23797852 0.04795898 11.14257812 0.03710938 C20.2782247 0.10141008 20.2782247 0.10141008 22.45953369 1.72467041 C24.21675472 4.03204163 24.17186675 5.36042297 24.14916992 8.24291992 C24.14883003 9.68407417 24.14883003 9.68407417 24.14848328 11.15434265 C24.13299942 12.1888002 24.11751556 13.22325775 24.1015625 14.2890625 C24.09731766 15.35022781 24.09307281 16.41139313 24.08869934 17.50471497 C24.07189081 20.8979314 24.03423394 24.29055647 23.99609375 27.68359375 C23.98104975 29.98241331 23.96736086 32.28124216 23.95507812 34.58007812 C23.9219802 40.21895217 23.87175905 45.85748072 23.80859375 51.49609375 C22.48859375 52.15609375 21.16859375 52.81609375 19.80859375 53.49609375 C20.02515625 54.54796875 20.02515625 54.54796875 20.24609375 55.62109375 C19.64769467 59.55343058 17.86929739 60.79190759 14.83203125 63.203125 C11.88881564 65.08382841 9.21928153 65.80003502 5.80859375 66.49609375 C5.80859375 68.14609375 5.80859375 69.79609375 5.80859375 71.49609375 C5.47859375 71.49609375 5.14859375 71.49609375 4.80859375 71.49609375 C4.31359375 69.02109375 4.31359375 69.02109375 3.80859375 66.49609375 C0.33917829 66.95431843 -2.86535674 67.38741058 -6.19140625 68.49609375 C-6.48015625 67.54734375 -6.76890625 66.59859375 -7.06640625 65.62109375 C-7.95965734 62.44397797 -7.95965734 62.44397797 -10.19140625 60.49609375 C-10.45883179 58.15652466 -10.45883179 58.15652466 -10.48193359 55.19189453 C-10.50107315 53.52974411 -10.50107315 53.52974411 -10.52059937 51.83401489 C-10.52282501 50.63195404 -10.52505066 49.42989319 -10.52734375 48.19140625 C-10.53400055 46.96074432 -10.54065735 45.7300824 -10.54751587 44.46212769 C-10.55765751 41.85448709 -10.56233242 39.24682046 -10.56201172 36.63916016 C-10.56184897 33.96375553 -10.57575705 31.28903405 -10.60302734 28.61376953 C-10.63959722 24.76443428 -10.64948158 20.91589766 -10.65234375 17.06640625 C-10.66671478 15.86839386 -10.68108582 14.67038147 -10.69589233 13.43606567 C-10.68973907 12.32166107 -10.68358582 11.20725647 -10.67724609 10.05908203 C-10.68009613 9.0791629 -10.68294617 8.09924377 -10.68588257 7.08963013 C-9.53638775 1.06051098 -5.55454175 -0.00943325 0 0 Z " fill="#45B1FA" transform="translate(650.19140625,274.50390625)"/>
<path d="M0 0 C5.94 0 11.88 0 18 0 C18.33 14.85 18.66 29.7 19 45 C20.485 45.495 20.485 45.495 22 46 C22.99720697 49.83471406 23.81235727 53.38148666 21.9765625 57.0390625 C20.93082971 58.47210373 19.87802495 59.89999664 18.8203125 61.32421875 C3.1074583 84.42144005 3.90681409 113.87517245 8.57617188 140.18383789 C9.65066947 146.24031433 10.20533486 151.84637104 10 158 C6.7 158 3.4 158 0 158 C0 105.86 0 53.72 0 0 Z " fill="#45B2FC" transform="translate(601,306)"/>
<path d="M0 0 C5.94 0 11.88 0 18 0 C18 28.38 18 56.76 18 86 C12.06 86 6.12 86 0 86 C0 57.62 0 29.24 0 0 Z " fill="#45B1FB" transform="translate(505,378)"/>
<path d="M0 0 C7.85652951 2.6993501 11.98636235 5.54819315 16.41015625 12.57421875 C23.01177019 22.64695157 35.42290314 27.04381196 46.69921875 29.45703125 C49 30 49 30 50 31 C50.40625 34.3125 50.40625 34.3125 50 38 C47.71875 40.1875 47.71875 40.1875 44.5 42 C43.92048584 42.33338379 43.34097168 42.66676758 42.74389648 43.01025391 C37.69078454 45.83324393 32.38843531 48.00552089 27.04418945 50.20605469 C19.11520401 53.59721193 11.29824655 58.61597913 5.23828125 64.796875 C4 66 4 66 2 66 C2.0721875 65.40058594 2.144375 64.80117188 2.21875 64.18359375 C4.16768709 45.15438859 2.8668718 26.490556 0.27539062 7.58935547 C0.00399485 5.03756152 -0.04858413 2.56396976 0 0 Z " fill="#FCFCFC" transform="translate(617,444)"/>
<path d="M0 0 C4.65833547 4.0773177 9.34442249 8.77333444 10.0859375 15.1484375 C10.10903455 20.64553491 10.09151343 24.90910842 6.78515625 29.5625 C3.24380956 30.7429489 0.03070411 30.70868724 -3.65234375 30.6875 C-4.97105469 30.69007813 -6.28976562 30.69265625 -7.6484375 30.6953125 C-10.45442352 30.59081795 -12.569118 30.353245 -15.21484375 29.5625 C-22.44979806 28.62463555 -27.7074819 31.2455483 -34.140625 34.25 C-37.21484375 35.5625 -37.21484375 35.5625 -40.21484375 35.5625 C-40.21484375 34.2425 -40.21484375 32.9225 -40.21484375 31.5625 C-34.62064959 26.71278035 -24.89981247 20.5625 -17.21484375 20.5625 C-17.54484375 18.5825 -17.87484375 16.6025 -18.21484375 14.5625 C-25.89410777 14.85785631 -31.53134304 17.96295748 -38.21484375 21.5625 C-39.54552287 22.23444889 -40.87771193 22.90348503 -42.21484375 23.5625 C-42.09375 21.30078125 -42.09375 21.30078125 -41.21484375 18.5625 C-38.4921875 16.54296875 -38.4921875 16.54296875 -35.15234375 14.75 C-34.04761719 14.14542969 -32.94289063 13.54085937 -31.8046875 12.91796875 C-30.95003906 12.47066406 -30.09539063 12.02335938 -29.21484375 11.5625 C-29.54484375 9.9125 -29.87484375 8.2625 -30.21484375 6.5625 C-35.56328383 7.09734401 -39.57280478 9.02940767 -44.21484375 11.5625 C-44.54484375 10.2425 -44.87484375 8.9225 -45.21484375 7.5625 C-34.52050107 -1.57630192 -12.61001407 -9.11442495 0 0 Z " fill="#F8F8F8" transform="translate(748.21484375,641.4375)"/>
<path d="M0 0 C1.19173828 -0.00064453 2.38347656 -0.00128906 3.61132812 -0.00195312 C5.47241211 0.02801758 5.47241211 0.02801758 7.37109375 0.05859375 C9.23797852 0.04795898 9.23797852 0.04795898 11.14257812 0.03710938 C20.27973007 0.10142068 20.27973007 0.10142068 22.45755005 1.72665405 C24.20884799 4.02030014 24.18305757 5.34267143 24.1809082 8.21118164 C24.19025139 9.64265282 24.19025139 9.64265282 24.19978333 11.1030426 C24.19057358 12.13122604 24.18136383 13.15940948 24.171875 14.21875 C24.17262276 15.80338295 24.17262276 15.80338295 24.17338562 17.42002869 C24.17104458 19.65349203 24.16131436 21.88695799 24.14477539 24.12036133 C24.12116273 27.54857836 24.12421686 30.9760191 24.13085938 34.40429688 C24.12528348 36.57161924 24.11817416 38.73893832 24.109375 40.90625 C24.11074211 42.45156151 24.11074211 42.45156151 24.11213684 44.02809143 C24.10260483 44.97925339 24.09307281 45.93041534 24.08325195 46.91040039 C24.07864456 47.7496254 24.07403717 48.5888504 24.06929016 49.45350647 C23.80859375 51.49609375 23.80859375 51.49609375 21.80859375 53.49609375 C19.24609375 53.24609375 19.24609375 53.24609375 16.80859375 52.49609375 C15.66543628 50.20977881 15.68746643 48.95261969 15.69506836 46.41357422 C15.69514389 45.5728537 15.69521942 44.73213318 15.69529724 43.86593628 C15.70045853 42.95756012 15.70561981 42.04918396 15.7109375 41.11328125 C15.71235245 40.18387726 15.7137674 39.25447327 15.71522522 38.29690552 C15.72083322 35.32160251 15.73338707 32.34637411 15.74609375 29.37109375 C15.75110772 27.35677192 15.7556708 25.34244891 15.75976562 23.328125 C15.77080525 18.38408573 15.78807526 13.4401024 15.80859375 8.49609375 C9.86859375 8.49609375 3.92859375 8.49609375 -2.19140625 8.49609375 C-2.18616943 10.09638428 -2.18093262 11.6966748 -2.17553711 13.34545898 C-2.15749511 19.25870204 -2.14597718 25.17194264 -2.13647461 31.08520508 C-2.13143255 33.64901132 -2.12459911 36.21281466 -2.1159668 38.77661133 C-2.10389561 42.45264396 -2.09817683 46.12863873 -2.09375 49.8046875 C-2.08858871 50.95883652 -2.08342743 52.11298553 -2.07810974 53.30210876 C-2.07803421 54.36313309 -2.07795868 55.42415741 -2.07788086 56.51733398 C-2.07566025 57.45665268 -2.07343964 58.39597137 -2.07115173 59.36375427 C-2.19140625 61.49609375 -2.19140625 61.49609375 -3.19140625 62.49609375 C-5.62890625 62.68359375 -5.62890625 62.68359375 -8.19140625 62.49609375 C-10.78968744 59.89781256 -10.45373788 58.81021993 -10.48193359 55.19189453 C-10.50107315 53.52974411 -10.50107315 53.52974411 -10.52059937 51.83401489 C-10.52282501 50.63195404 -10.52505066 49.42989319 -10.52734375 48.19140625 C-10.53400055 46.96074432 -10.54065735 45.7300824 -10.54751587 44.46212769 C-10.55765751 41.85448709 -10.56233242 39.24682046 -10.56201172 36.63916016 C-10.56184897 33.96375553 -10.57575705 31.28903405 -10.60302734 28.61376953 C-10.63959722 24.76443428 -10.64948158 20.91589766 -10.65234375 17.06640625 C-10.66671478 15.86839386 -10.68108582 14.67038147 -10.69589233 13.43606567 C-10.68973907 12.32166107 -10.68358582 11.20725647 -10.67724609 10.05908203 C-10.68009613 9.0791629 -10.68294617 8.09924377 -10.68588257 7.08963013 C-9.53638775 1.06051098 -5.55454175 -0.00943325 0 0 Z " fill="#090A0B" transform="translate(650.19140625,274.50390625)"/>
<path d="M0 0 C2.91517292 1.07401108 4.77810176 1.77810176 7 4 C7.52948533 11.17667278 6.23913112 17.40475378 4.375 24.3125 C4.10647217 25.32344727 3.83794434 26.33439453 3.5612793 27.37597656 C-1.48318356 45.62709283 -1.48318356 45.62709283 -8 51 C-10.3125 51.125 -10.3125 51.125 -13 50 C-17.56232587 45.74182919 -20.48597517 40.7206854 -23.5 35.3125 C-23.87487549 34.65878418 -24.24975098 34.00506836 -24.63598633 33.33154297 C-27.13282323 28.6676739 -27.13282323 28.6676739 -26.5625 25.80078125 C-24.4601535 23.3778269 -22.13054604 21.71231437 -19.5 19.875 C-11.88008046 14.38579078 -4.60943678 8.30582218 0 0 Z " fill="#FB422D" transform="translate(716,490)"/>
<path d="M0 0 C1.92874992 17.07300854 1.92874992 17.07300854 -2.3203125 22.6875 C-5.23953603 25.84772468 -8.53036049 28.4721491 -12 31 C-12.99773438 31.7528125 -13.99546875 32.505625 -15.0234375 33.28125 C-17.30972951 34.93209695 -19.61295896 36.50017776 -22 38 C-27.59732597 33.20229203 -31.75505263 26.34920544 -33 19 C-33.06831987 16.5842094 -33.08487642 14.16665287 -33.0625 11.75 C-33.05347656 10.48671875 -33.04445313 9.2234375 -33.03515625 7.921875 C-33.02355469 6.95765625 -33.01195312 5.9934375 -33 5 C-32.1028125 4.97421875 -31.205625 4.9484375 -30.28125 4.921875 C-21.54018343 4.52455379 -13.60118378 3.15642752 -5.16796875 0.83984375 C-2 0 -2 0 0 0 Z " fill="#FBFBFB" transform="translate(708,471)"/>
<path d="M0 0 C0.43699219 1.25103516 0.43699219 1.25103516 0.8828125 2.52734375 C3.23514056 8.98515003 5.63922062 14.55234498 9.86328125 20 C11.3385968 22.5957442 11.4031485 24.04805706 11 27 C7.16603128 35.02544578 1.09481288 41.62877838 -5 48 C-6.8125 47.9375 -6.8125 47.9375 -9 47 C-13.13936505 40.57136985 -12.40839028 33.41040109 -12.3125 26 C-12.31572266 24.75476563 -12.31894531 23.50953125 -12.32226562 22.2265625 C-12.25138905 10.13888485 -12.25138905 10.13888485 -10 5 C-8.125 3.22265625 -8.125 3.22265625 -6 2.0625 C-5.29875 1.66160156 -4.5975 1.26070313 -3.875 0.84765625 C-2 0 -2 0 0 0 Z " fill="#FA412D" transform="translate(668,491)"/>
<path d="M0 0 C2.97552713 1.31097265 5.55943217 2.84484464 8 5 C9 7.8125 9 7.8125 9 10 C7.35 11.32 5.7 12.64 4 14 C4.02525184 16.91038542 4.02525184 16.91038542 5 20 C7.95071844 21.93469849 7.95071844 21.93469849 11 23 C10.72960418 26.24474984 10.1742292 27.79204902 8.0625 30.3125 C3.69462983 32.7192856 -0.11710402 32.79247 -5 32 C-8.125 30.3125 -8.125 30.3125 -10 28 C-10.3125 25.25 -10.3125 25.25 -10 23 C-9.01 22.67 -8.02 22.34 -7 22 C-6.49803706 18.71073505 -6.49803706 18.71073505 -7 15 C-8.81188028 12.8596502 -10.65801167 11.61011698 -13 10 C-12.52048204 5.68433833 -11.29764982 3.7980059 -8 1 C-5.06699268 -0.46650366 -3.27962656 -0.36440295 0 0 Z " fill="#040404" transform="translate(616,625)"/>
<path d="M0 0 C4.55555556 0.55555556 4.55555556 0.55555556 6 2 C6.13375873 3.66455312 6.23141914 5.33205085 6.3125 7 C7.13297171 16.46603924 10.94947143 23.62223179 18 30 C23.87141787 34.29663361 30.00564236 37.07401746 37 39 C37.625 41.375 37.625 41.375 38 44 C37.34 44.66 36.68 45.32 36 46 C25.57309005 46 17.04294537 41.31857561 9.5625 34.25 C5.20093458 29.60139737 2.36311145 24.89229973 0 19 C-0.433125 18.030625 -0.86625 17.06125 -1.3125 16.0625 C-2.35138493 11.43473986 -2.52419371 6.71774343 -2 2 C-1.34 1.34 -0.68 0.68 0 0 Z " fill="#0A0A0A" transform="translate(685,363)"/>
<path d="M0 0 C5.30225131 0.07555021 8.90871415 0.69648355 12.875 4.3125 C17.0957314 8.68358824 18.22807397 12.78801131 18.4375 18.8125 C18.14368276 25.50070823 16.873305 30.20288901 12.19140625 35.05859375 C8.34456485 38.50834185 4.97348453 41.18905973 -0.3125 41.5 C-3.125 41.3125 -3.125 41.3125 -4.125 40.3125 C-4.51953125 37.9609375 -4.51953125 37.9609375 -4.125 35.3125 C-1.82421875 33.5390625 -1.82421875 33.5390625 1.1875 31.9375 C6.01593833 29.19191395 6.01593833 29.19191395 9.0625 24.75 C10.18451366 20.00301914 10.67962651 16.95832695 8.5 12.5 C7.05898646 10.21644668 7.05898646 10.21644668 4.875 9.3125 C2.31514782 9.0400833 -0.24429936 8.86685019 -2.8125 8.69140625 C-5.125 8.3125 -5.125 8.3125 -7.125 6.3125 C-6.43150141 0.62581153 -5.57744789 0.14437535 0 0 Z " fill="#080808" transform="translate(741.125,405.6875)"/>
<path d="M0 0 C4.70588235 0.70588235 4.70588235 0.70588235 6 2 C6.03836712 3.38495937 6.01183786 4.77184373 5.95703125 6.15625 C5.93576172 7.01476562 5.91449219 7.87328125 5.89257812 8.7578125 C5.84009322 10.55510036 5.77542559 12.35208304 5.69726562 14.1484375 C5.56899952 20.55224143 6.6907354 25.46698681 10 31 C10.7425 31.7425 11.485 32.485 12.25 33.25 C14 35 14 35 14.3125 37.6875 C14 40 14 40 13 41 C10.03860188 41.34607324 8.55107946 41.41015893 6.12109375 39.6015625 C-1.45611082 30.70581885 -3.45918665 23.28497612 -3.3359375 11.61328125 C-2.4874851 2.4874851 -2.4874851 2.4874851 0 0 Z " fill="#0A0A0A" transform="translate(662,362)"/>
<path d="M0 0 C-0.165 1.11375 -0.33 2.2275 -0.5 3.375 C-1.39511815 11.20413196 -1.07637758 19.13310946 -1 27 C-5.3874115 24.5157372 -7.63929255 22.55279294 -10 18 C-11.19530564 13.46271738 -11.37968664 10.07910938 -9.8125 5.625 C-6.8227533 1.29502202 -5.35573354 0 0 0 Z " fill="#F1F1F1" transform="translate(625,412)"/>
<path d="M0 0 C2.5 1.5625 2.5 1.5625 4 4 C4 7.78814147 3.8367392 10.03929943 1.3125 12.9375 C-1.76819895 14.35295627 -3.64720251 14.55879958 -7 14 C-9.62846098 11.57904909 -10.81388233 9.95385308 -11.5 6.4375 C-10.19781462 0.08934627 -5.87567428 -0.83938204 0 0 Z " fill="#0B0B0B" transform="translate(336,515)"/>
<path d="M0 0 C2.5 1.5625 2.5 1.5625 4 4 C4 7.78814147 3.8367392 10.03929943 1.3125 12.9375 C-1.76819895 14.35295627 -3.64720251 14.55879958 -7 14 C-9.62846098 11.57904909 -10.81388233 9.95385308 -11.5 6.4375 C-10.19781462 0.08934627 -5.87567428 -0.83938204 0 0 Z " fill="#0B0B0B" transform="translate(307,515)"/>
<path d="M0 0 C2.4375 1.0625 2.4375 1.0625 4 3 C4.5625 6.4375 4.5625 6.4375 4 10 C1.9375 12.5 1.9375 12.5 -1 14 C-4.6875 13.9375 -4.6875 13.9375 -8 13 C-10.46324069 9.30513897 -10.38991688 7.36706908 -10 3 C-7.77455145 -1.05817089 -4.20489208 -0.44262022 0 0 Z " fill="#070707" transform="translate(507,515)"/>
<path d="M0 0 C1.9375 1 1.9375 1 3 3 C3.45982357 5.75894141 3.51068558 8.24574069 3 11 C0.82200662 13.68060724 -0.61001305 13.93500217 -4 14.5 C-7 14 -7 14 -9.4375 11.9375 C-11.46887051 8.11852344 -11.16377498 6.11200491 -10 2 C-6.30513897 -0.46324069 -4.36706908 -0.38991688 0 0 Z " fill="#070707" transform="translate(394,515)"/>
<path d="M0 0 C1.9375 1 1.9375 1 3 3 C3.46000079 5.76000474 3.50420748 8.24404774 3 11 C1.4375 13.0625 1.4375 13.0625 -1 14 C-4.45113452 13.87890756 -6.96862779 13.63213135 -9.9375 11.8125 C-11.56034621 9.04411529 -11.44922076 7.14454533 -11 4 C-8.05323917 -0.47907646 -5.13567732 -0.65363166 0 0 Z " fill="#080808" transform="translate(365,515)"/>
<path d="M0 0 C2.4375 1.625 2.4375 1.625 4 4 C4.5625 7 4.5625 7 4 10 C1.9375 12.4375 1.9375 12.4375 -1 14 C-7.21052632 13.78947368 -7.21052632 13.78947368 -10 11 C-10.55239643 4.03980504 -10.55239643 4.03980504 -8.9375 1 C-5.82090489 -0.60856522 -3.43737531 -0.42213381 0 0 Z " fill="#080808" transform="translate(278,515)"/>
<path d="M0 0 C2.5 1.5625 2.5 1.5625 4 4 C4 7.77684879 3.78395245 10.03513544 1.375 13 C-2.04776185 14.44116288 -4.44605372 13.85557966 -8 13 C-10 11 -10 11 -10.3125 7.0625 C-10.23081662 4.56208106 -10.12109418 3.22794199 -8.9375 1 C-5.82090489 -0.60856522 -3.43737531 -0.42213381 0 0 Z " fill="#070707" transform="translate(565,515)"/>
<path d="M0 0 C2.5 1.5625 2.5 1.5625 4 4 C4 7.77684879 3.78395245 10.03513544 1.375 13 C-2.04776185 14.44116288 -4.44605372 13.85557966 -8 13 C-10 11 -10 11 -10.3125 7.0625 C-10.23081662 4.56208106 -10.12109418 3.22794199 -8.9375 1 C-5.82090489 -0.60856522 -3.43737531 -0.42213381 0 0 Z " fill="#070707" transform="translate(249,515)"/>
<path d="M0 0 C2.5 1.5625 2.5 1.5625 4 4 C4 7.77684879 3.78395245 10.03513544 1.375 13 C-2.04776185 14.44116288 -4.44605372 13.85557966 -8 13 C-10 11 -10 11 -10.3125 7.0625 C-10.23081662 4.56208106 -10.12109418 3.22794199 -8.9375 1 C-5.82090489 -0.60856522 -3.43737531 -0.42213381 0 0 Z " fill="#070707" transform="translate(594,515)"/>
<path d="M0 0 C2.5 1.5625 2.5 1.5625 4 4 C4 7.77684879 3.78395245 10.03513544 1.375 13 C-2.07663304 14.45331917 -4.42809484 13.92604949 -8 13 C-10.46324069 9.30513897 -10.38991688 7.36706908 -10 3 C-7.7773391 -1.05308751 -4.20075589 -0.5158823 0 0 Z " fill="#060606" transform="translate(536,515)"/>
<path d="M0 0 C4.55555556 0.55555556 4.55555556 0.55555556 6 2 C6.0989294 4.16480797 6.129711 6.33293785 6.125 8.5 C6.12757813 9.6859375 6.13015625 10.871875 6.1328125 12.09375 C6 15 6 15 5 16 C3.00041636 16.04080783 0.99954746 16.04254356 -1 16 C-2.36271133 13.27457733 -2.16923601 11.03912726 -2.1875 8 C-2.20167969 6.9275 -2.21585938 5.855 -2.23046875 4.75 C-2 2 -2 2 0 0 Z " fill="#0E0E0E" transform="translate(688,414)"/>
<path d="M0 0 C3.53571429 0.53571429 3.53571429 0.53571429 5 2 C5.0989294 4.16480797 5.129711 6.33293785 5.125 8.5 C5.12757813 9.6859375 5.13015625 10.871875 5.1328125 12.09375 C5 15 5 15 4 16 C1.5 16.125 1.5 16.125 -1 16 C-2.87243981 14.12756019 -2.17380392 11.06340482 -2.1875 8.5625 C-2.20167969 7.38816406 -2.21585938 6.21382813 -2.23046875 5.00390625 C-2 2 -2 2 0 0 Z " fill="#030303" transform="translate(667,414)"/>
<path d="M0 0 C-1.34150035 2.68300071 -2.60687715 2.8437032 -5.3671875 3.9453125 C-6.69556641 4.47705078 -6.69556641 4.47705078 -8.05078125 5.01953125 C-8.98277344 5.38433594 -9.91476562 5.74914062 -10.875 6.125 C-11.79925781 6.49753906 -12.72351563 6.87007812 -13.67578125 7.25390625 C-20.60639881 10 -20.60639881 10 -24 10 C-24 9.01 -24 8.02 -24 7 C-21.50757439 5.81428296 -19.00807613 4.65175836 -16.5 3.5 C-15.80390625 3.16613281 -15.1078125 2.83226562 -14.390625 2.48828125 C-9.33290936 0.19357693 -5.54783159 -0.34986325 0 0 Z " fill="#C8C8C8" transform="translate(734,678)"/>
<path d="M0 0 C5.42857143 -0.36190476 5.42857143 -0.36190476 7.875 1.1875 C9.34781139 3.56036279 9.22223194 5.25913944 9 8 C3.56603774 7.39622642 3.56603774 7.39622642 1.125 5.6875 C0 4 0 4 0 0 Z " fill="#040404" transform="translate(606,615)"/>
</svg>
